<svg width="64" height="64" viewBox="0 0 64 64" fill="none" xmlns="http://www.w3.org/2000/svg">
  <path
    d="M35.1587 59.105C38.9384 59.0249 42.8412 52.3964 43.8054 47.5752C40.3496 47.5752 33.2568 40.17 32.0226 38.3186C30.7883 40.17 23.6883 47.5752 20.2325 47.5752C21.4667 53.7463 27.5143 62.8794 31.9575 57.4489C31.9793 57.4223 31.9964 57.3916 32.0177 57.3645C32.0394 57.392 32.0583 57.4219 32.0804 57.4489C33.0523 58.6368 34.1004 59.1274 35.1587 59.105Z"
    fill="#F06E8E" />
  <path
    d="M6.6136 42.9304C7.85771 46.5004 15.3679 48.1638 20.251 47.591C19.1831 44.3044 24.0342 35.2703 25.4135 33.5244C23.2714 32.9227 14.0345 28.4585 12.9666 25.1718C7.47896 28.2526 0.661621 36.8265 7.19938 39.3741C7.23144 39.3866 7.26593 39.3934 7.29824 39.4053C7.27886 39.4344 7.25622 39.4617 7.23737 39.491C6.40793 40.7825 6.26525 41.9308 6.6136 42.9304Z"
    fill="#F06E8E" />
  <path
    d="M57.3864 42.9304C56.1423 46.5004 48.6321 48.1638 43.749 47.591C44.8169 44.3044 39.9658 35.2703 38.5865 33.5244C40.7286 32.9227 49.9655 28.4585 51.0334 25.1718C56.521 28.2526 63.3384 36.8265 56.8006 39.3741C56.7686 39.3866 56.7341 39.3934 56.7018 39.4053C56.7211 39.4344 56.7438 39.4617 56.7626 39.491C57.5921 40.7825 57.7347 41.9308 57.3864 42.9304Z"
    fill="#F06E8E" />
  <path
    d="M13.1826 10.7745C10.1718 13.0609 10.9105 20.7176 12.9643 25.1847C15.7601 23.1535 25.851 24.9754 27.9377 25.7477C27.848 23.5245 29.2394 13.3601 32.0352 11.3289C27.4094 7.06184 17.1485 3.22766 16.7458 10.2327C16.7439 10.267 16.7481 10.3019 16.7467 10.3364C16.7131 10.3269 16.6801 10.3138 16.6464 10.3049C15.1618 9.91518 14.0256 10.1343 13.1826 10.7745Z"
    fill="#F06E8E" />
  <path
    d="M45.7395 7.08364C42.6346 4.92674 35.581 7.99538 31.9671 11.329C34.7629 13.3603 36.1485 23.5203 36.0588 25.7435C38.1455 24.9712 48.2423 23.1536 51.0381 25.1848C53.6668 19.4669 54.1425 8.5233 47.3559 10.3051C47.3227 10.3138 47.2908 10.3286 47.2576 10.3379C47.2562 10.303 47.2585 10.2676 47.2565 10.2328C47.1684 8.70046 46.6089 7.68758 45.7395 7.08364Z"
    fill="#F06E8E" />
</svg>
