<svg width="24" height="24" viewBox="0 0 24 24" xmlns="http://www.w3.org/2000/svg">
  <path fill-rule="evenodd" clip-rule="evenodd"
    d="M7.3178 6.37416C6.96204 6.03096 6.96204 5.46109 7.3178 5.1179C7.65592 4.79171 8.19157 4.79171 8.5297 5.1179L10.4153 6.93691C10.4689 6.9886 10.5144 7.04542 10.5518 7.10584H13.4035C13.441 7.04542 13.4865 6.9886 13.54 6.93691L15.4256 5.1179C15.7637 4.79171 16.2994 4.79171 16.6375 5.1179C16.9933 5.46109 16.9933 6.03096 16.6375 6.37416L15.8791 7.10584H16.4444C18.4081 7.10584 20 8.69771 20 10.6614V15.5552C20 17.5188 18.4081 19.1108 16.4444 19.1108H7.55556C5.59188 19.1108 4 17.5188 4 15.5552V10.6614C4 8.6977 5.59188 7.10584 7.55556 7.10584H8.07626L7.3178 6.37416ZM7.55556 8.82082C6.57372 8.82082 5.77778 9.61676 5.77778 10.5986V15.618C5.77778 16.5998 6.57372 17.3957 7.55556 17.3957H16.4444C17.4263 17.3957 18.2222 16.5998 18.2222 15.618V10.5986C18.2222 9.61676 17.4263 8.82082 16.4444 8.82082H7.55556ZM8.44444 12.2822C8.44444 11.7913 8.84242 11.3933 9.33333 11.3933C9.82425 11.3933 10.2222 11.7913 10.2222 12.2822V13.0769C10.2222 13.5678 9.82425 13.9658 9.33333 13.9658C8.84242 13.9658 8.44444 13.5678 8.44444 13.0769V12.2822ZM14.6667 11.3933C14.1757 11.3933 13.7778 11.7913 13.7778 12.2822V13.0769C13.7778 13.5678 14.1757 13.9658 14.6667 13.9658C15.1576 13.9658 15.5556 13.5678 15.5556 13.0769V12.2822C15.5556 11.7913 15.1576 11.3933 14.6667 11.3933Z" />
</svg>
