<svg width="215" height="49" viewBox="0 0 215 49" fill="none" xmlns="http://www.w3.org/2000/svg">
  <g clip-path="url(#clip0_4_3)">
    <path
      d="M30.7275 4.2823C31.9708 4.29263 32.7935 4.32412 33.3263 4.38245C33.7551 4.4289 34.4916 4.52492 34.9635 4.59512C35.4355 4.66481 36.1699 4.79179 36.5961 4.87748C37.0223 4.96265 37.4506 5.06951 37.5473 5.11545C37.6444 5.16139 37.7806 5.27186 37.8498 5.36168C37.9184 5.45149 38.0093 5.67501 38.0519 5.85774C38.0935 6.04099 38.3539 7.37536 38.6294 8.8233C38.9932 10.7358 39.1216 11.5117 39.0977 11.6598C39.0728 11.7911 39.0263 11.9174 38.96 12.0335C38.9017 12.1265 38.7916 12.2462 38.7152 12.2994C38.6387 12.3531 38.4823 12.4186 38.368 12.4455C38.1933 12.4868 38.0363 12.463 37.3804 12.2958C36.8281 12.1584 36.2729 12.0327 35.7151 11.9189C35.1972 11.8154 34.6774 11.722 34.1558 11.6386C33.6728 11.5688 33.1883 11.5096 32.7026 11.4611C32.1491 11.4111 31.5946 11.3743 31.0394 11.3506C30.5196 11.33 29.7815 11.3403 29.2462 11.3754C28.7038 11.4121 28.1627 11.465 27.6235 11.5339C27.2311 11.5886 26.636 11.6939 26.3007 11.7687C25.9655 11.8436 25.3703 12.0067 24.979 12.1321C24.5876 12.2576 24.0398 12.4537 23.7617 12.5688C23.4836 12.684 22.9987 12.9059 22.6842 13.0628C22.3698 13.2193 21.8989 13.4773 21.638 13.6358C21.272 13.8663 20.9145 14.1097 20.5662 14.3657C20.2195 14.6212 19.64 15.1323 19.1852 15.5829C18.7549 16.0103 18.2445 16.5575 18.0506 16.7986C17.7827 17.1422 17.5272 17.4952 17.2845 17.8568C17.0568 18.1975 16.666 18.8825 16.4154 19.3796C16.1342 19.9295 15.8931 20.4988 15.694 21.083C15.5485 21.5233 15.3925 22.069 15.3489 22.2961C15.3052 22.5232 15.2397 22.8949 15.2028 23.122C15.1602 23.3853 15.1368 24.0228 15.1384 24.8771C15.1399 26.0034 15.1592 26.3384 15.2564 26.9605C15.3203 27.3683 15.4523 28.0099 15.5495 28.3872C15.6467 28.7641 15.813 29.3019 15.9185 29.5817C16.0241 29.8615 16.2023 30.2997 16.3151 30.5553C16.4279 30.8108 16.6763 31.2934 16.8671 31.6274C17.0579 31.9614 17.3541 32.4296 17.5256 32.6681C17.6972 32.9055 18.036 33.3267 18.2793 33.6034C18.5225 33.8796 18.955 34.3158 19.2408 34.5718C19.5267 34.8278 19.9867 35.2052 20.2632 35.4106C20.6085 35.6614 20.9639 35.898 21.3287 36.1199C21.6385 36.3052 22.1723 36.5963 22.5153 36.7667C22.8584 36.937 23.3729 37.1688 23.6588 37.2818C23.9447 37.3944 24.4478 37.5709 24.7763 37.6726C25.1053 37.7748 25.5964 37.9034 25.8678 37.9581C26.1396 38.0123 26.6656 38.0985 27.0372 38.1491C27.5362 38.2162 28.0663 38.2404 29.0643 38.242C30.0653 38.243 30.6043 38.2193 31.1433 38.1506C31.5435 38.1 32.187 38.0009 32.5726 37.9317C32.9583 37.8615 33.5862 37.7118 33.9677 37.5988C34.3492 37.4852 34.9339 37.2865 35.2671 37.1559C35.6906 36.9868 36.1092 36.8058 36.5223 36.6129C36.8788 36.4441 37.4282 36.1638 37.7422 35.9903C38.1284 35.7738 38.5096 35.5487 38.8856 35.3151C39.2734 35.0694 39.6554 34.8146 40.0312 34.5512C40.4546 34.2456 40.8706 33.93 41.2786 33.6044C41.79 33.1946 42.0115 33.049 42.1918 33.0062C42.3685 32.9644 42.4928 32.9649 42.6731 33.0103C42.8342 33.0506 42.9834 33.1383 43.117 33.271C43.2298 33.3825 43.3337 33.5446 43.353 33.639C43.3722 33.7319 43.6336 35.0952 43.9351 36.6696C44.4294 39.2568 44.4767 39.5542 44.4247 39.7591C44.3935 39.8835 44.3301 40.0414 44.2854 40.1101C44.2402 40.1782 43.894 40.4647 43.5162 40.7466C43.0713 41.0751 42.6178 41.3918 42.156 41.6964C41.7149 41.9798 41.2658 42.2507 40.8093 42.5089C40.4381 42.7154 39.8664 43.0101 39.5374 43.1644C39.2084 43.3188 38.6938 43.5454 38.3939 43.6677C38.0935 43.7906 37.5327 43.9981 37.1465 44.1303C36.7609 44.2619 36.1611 44.4493 35.8149 44.5463C35.4682 44.6439 34.8274 44.8054 34.3913 44.9056C33.9547 45.0062 33.2676 45.1446 32.8642 45.2132C32.3615 45.2963 31.8571 45.3684 31.3512 45.4295C30.7727 45.4966 30.1698 45.5204 29.0123 45.5209C27.833 45.5209 27.2695 45.4992 26.6994 45.4295C26.2155 45.3687 25.7331 45.2959 25.2529 45.2112C24.7212 45.1076 24.1926 44.9892 23.6676 44.856C23.1313 44.7173 22.5997 44.5615 22.0735 44.3889C21.6293 44.2354 21.1894 44.0698 20.7544 43.8923C20.3028 43.6992 19.8567 43.4938 19.4165 43.2765C18.9746 43.0549 18.5392 42.8208 18.1109 42.5744C17.7287 42.3475 17.3516 42.1122 16.9799 41.8688C16.3376 41.4395 15.7134 40.9841 15.1088 40.504C14.8024 40.2501 14.5009 39.9906 14.2044 39.7255C13.8078 39.3681 13.4264 38.9946 13.0609 38.6059C12.7452 38.2613 12.4387 37.9085 12.142 37.5477C11.8614 37.1941 11.5902 36.8333 11.3286 36.4657C11.0793 36.1111 10.8401 35.7496 10.6113 35.3817C10.447 35.1123 10.1435 34.5543 9.93612 34.1428C9.69698 33.6606 9.47559 33.1699 9.27239 32.6717C9.1015 32.2378 8.94412 31.7988 8.80045 31.3554C8.65697 30.8768 8.52492 30.3948 8.40439 29.91C8.28877 29.4443 8.18479 28.9758 8.09254 28.5049C8.02376 28.1139 7.96293 27.7215 7.9101 27.328C7.8515 26.8258 7.80885 26.3219 7.78224 25.8171C7.75508 25.2181 7.75543 24.6181 7.78328 24.0192C7.80927 23.5184 7.86644 22.8453 7.91114 22.5222C7.95532 22.199 8.02757 21.7489 8.07175 21.5218C8.11593 21.2947 8.24223 20.749 8.35242 20.3087C8.46261 19.8689 8.61489 19.3109 8.6913 19.0698C8.7677 18.8288 8.95897 18.3059 9.11594 17.9084C9.27343 17.5109 9.58684 16.8192 9.81242 16.3706C10.0418 15.9158 10.2855 15.4682 10.5432 15.0285C10.7194 14.7384 11.0037 14.2924 11.1752 14.0369C11.3473 13.7814 11.7158 13.2698 11.9944 12.9008C12.2724 12.5312 12.722 11.9737 12.9923 11.6619C13.2631 11.3496 13.8447 10.7456 14.2839 10.3192C14.7231 9.89287 15.3634 9.32143 15.7065 9.05043C16.0495 8.77891 16.5994 8.36905 16.9279 8.14037C17.285 7.8929 17.649 7.65536 18.0194 7.42802C18.2912 7.2649 18.7938 6.98563 19.1369 6.80703C19.5801 6.58156 20.0309 6.37084 20.4883 6.1752C20.8885 6.00641 21.5205 5.76276 21.8932 5.63475C22.3397 5.4833 22.7904 5.34387 23.2445 5.21662C23.6925 5.09598 24.1425 4.98309 24.5944 4.878C25.077 4.77135 25.5623 4.67669 26.0497 4.59409C26.4785 4.52285 27.1801 4.4289 27.609 4.38554C28.0378 4.34218 28.5055 4.29779 28.6485 4.28695C28.7914 4.27611 29.727 4.27404 30.7275 4.2823Z"
      fill="#E97183" style="fill:#E97183;fill:color(display-p3 0.9137 0.4431 0.5137);fill-opacity:1;" />
    <path fill-rule="evenodd" clip-rule="evenodd"
      d="M55.3407 20.6773C56.0424 20.6732 56.9311 20.6943 57.3158 20.7237C57.7004 20.7537 58.4109 20.8234 58.8948 20.8796C59.3782 20.9354 60.1266 21.0397 60.558 21.1109C60.9889 21.1826 61.8091 21.3556 62.3808 21.4955C62.9525 21.6348 63.7332 21.8558 64.1163 21.9858C64.5306 22.1286 64.9382 22.29 65.3377 22.4695C65.6267 22.6053 66.0545 22.8345 66.2878 22.9785C66.5217 23.123 66.8913 23.3724 67.1106 23.5334C67.3294 23.694 67.6969 24.0042 67.9266 24.222C68.1865 24.4718 68.4345 24.7334 68.6699 25.0061C68.8487 25.2188 69.1533 25.6256 69.3477 25.9095C69.542 26.1934 69.8362 26.7044 70.002 27.0451C70.1715 27.393 70.3841 27.9443 70.4875 28.3021C70.5888 28.6531 70.7172 29.1909 70.7728 29.4981C70.8284 29.8057 70.8877 30.3199 70.9043 30.6415C70.921 30.9631 70.9813 34.2538 71.0395 37.9534C71.133 43.9857 71.1356 44.7084 71.0655 44.9495C71.0202 45.1028 70.9241 45.2757 70.842 45.3521C70.7619 45.4264 70.6387 45.5178 70.567 45.556C70.4786 45.6035 70.1652 45.6319 69.5795 45.6458C69.108 45.6561 67.962 45.6391 67.0326 45.6066C66.1038 45.5741 65.1563 45.5235 64.9276 45.4935C64.6906 45.4626 64.4401 45.3955 64.3455 45.3376C64.2393 45.267 64.1482 45.1763 64.0773 45.0708C64.0212 44.9799 63.9588 44.7951 63.9385 44.6604C63.9188 44.5257 63.8917 44.4152 63.8798 44.4152C63.8673 44.4152 63.6885 44.5071 63.4827 44.6191C63.2769 44.7311 62.8912 44.9061 62.6251 45.0078C62.36 45.1095 61.8132 45.2741 61.4104 45.3743C61.0081 45.4739 60.4421 45.5937 60.1526 45.6401C59.7727 45.7016 59.2716 45.7258 58.3527 45.7279C57.5845 45.73 56.8521 45.7041 56.5075 45.6623C56.0815 45.6071 55.657 45.5417 55.2341 45.4662C54.755 45.3762 54.2784 45.2735 53.8048 45.158C53.413 45.0606 53.0232 44.956 52.6353 44.8442C52.2853 44.7341 51.9386 44.6136 51.5958 44.4828C51.1786 44.3184 50.7677 44.1384 50.364 43.9434C49.9365 43.7275 49.5202 43.4904 49.1166 43.2331C48.7283 42.9769 48.3504 42.7057 47.9835 42.4201C47.6106 42.1127 47.2549 41.7853 46.918 41.4393C46.6181 41.127 46.2158 40.6526 46.024 40.3852C45.8139 40.0876 45.6206 39.7786 45.445 39.4597C45.3052 39.1896 45.1836 38.9106 45.0812 38.6245C44.9857 38.3206 44.9038 38.0126 44.8358 37.7015C44.7392 37.2535 44.7267 37.0666 44.7485 36.4461C44.7693 35.8608 44.8057 35.599 44.932 35.1159C45.0183 34.7855 45.1716 34.3132 45.2724 34.068C45.3733 33.8218 45.6144 33.3835 45.8078 33.0944C46.0011 32.8054 46.339 32.3914 46.5588 32.1751C46.8432 31.9068 47.1488 31.6615 47.4726 31.4416C47.7558 31.2547 48.1264 31.0395 48.2969 30.9641C48.4679 30.8882 48.7709 30.77 48.971 30.7008C49.1711 30.6322 49.6623 30.4954 50.0625 30.3973C50.4627 30.2992 51.1057 30.1722 51.4919 30.1155C51.8775 30.0587 52.679 29.9849 53.272 29.9513C54.1078 29.9038 54.6291 29.9043 55.585 29.9523C56.2638 29.9869 57.1468 30.0494 57.5471 30.0912C57.9473 30.1325 58.7077 30.2264 59.2363 30.2987C59.7649 30.371 60.5487 30.4882 60.9775 30.5589C61.4063 30.6291 62.0612 30.7463 62.4328 30.8185C63.0409 30.9368 63.6448 31.0752 64.2436 31.2335C64.3346 31.2604 64.3387 31.2206 64.3216 30.4954C64.3039 29.7324 64.3029 29.7278 64.1095 29.3246C63.9728 29.0407 63.8096 28.8115 63.5638 28.5581C63.3704 28.3588 62.9671 28.0321 62.6667 27.8323C62.2614 27.5727 61.8418 27.3357 61.4099 27.1225C61.0185 26.9321 60.4764 26.7034 60.2051 26.6141C59.887 26.5093 59.4114 26.4107 58.8636 26.3369C58.1448 26.2388 57.7757 26.2213 56.4556 26.2207C55.1546 26.2197 54.81 26.2352 54.3765 26.3152C54.0907 26.3679 53.5995 26.4918 53.285 26.5903C52.7518 26.7571 52.6951 26.7653 52.4399 26.7096C52.2892 26.6771 52.0979 26.5934 52.0147 26.5238C51.9316 26.4541 51.5636 26.0096 51.1966 25.5363C50.7579 24.968 50.3235 24.3964 49.8936 23.8215C49.4404 23.2134 49.2335 22.8892 49.1753 22.6961C49.1015 22.4504 49.101 22.3993 49.1743 22.149C49.219 21.9972 49.3167 21.8124 49.3915 21.7381C49.4664 21.6637 49.6597 21.5533 49.8208 21.4929C49.982 21.432 50.4685 21.2936 50.9019 21.1852C51.3917 21.0649 51.8858 20.9626 52.3832 20.8786C52.7776 20.8168 53.1736 20.7662 53.5709 20.7268C53.8427 20.7036 54.639 20.6809 55.3407 20.6773ZM55.2601 35.1288C54.717 35.1314 54.0855 35.1629 53.8557 35.198C53.627 35.2336 53.3464 35.2924 53.232 35.3291C53.1182 35.3657 52.89 35.4633 52.7247 35.5454C52.5595 35.6274 52.3349 35.7745 52.2263 35.8721C52.1093 35.9774 51.9581 36.2009 51.8567 36.4203C51.7185 36.7182 51.6842 36.857 51.6826 37.1316C51.6811 37.4037 51.7107 37.5343 51.8307 37.782C51.9373 38.0014 52.1254 38.2342 52.4773 38.5822C52.8172 38.9187 53.1005 39.1438 53.3781 39.2992C53.601 39.4236 54.0085 39.6176 54.2835 39.7302C54.559 39.8427 55.0002 39.9893 55.2643 40.0554C55.5293 40.1225 55.9987 40.2154 56.3085 40.2629C56.6583 40.3166 57.2061 40.3506 57.755 40.3527C58.3672 40.3553 58.8142 40.3279 59.2103 40.265C59.5702 40.2038 59.926 40.1211 60.2758 40.0172C60.6451 39.8926 61.0072 39.7478 61.3605 39.5836C61.7133 39.4158 62.0557 39.2274 62.386 39.0194C62.6251 38.8614 63.0149 38.5414 63.253 38.3086C63.4915 38.0763 63.7842 37.7552 63.9042 37.5962C64.1152 37.317 64.122 37.2963 64.122 36.9148C64.122 36.5215 64.122 36.5215 63.7712 36.4131C63.4587 36.3201 63.1446 36.2331 62.8288 36.1519C62.3208 36.0287 61.8095 35.9189 61.2956 35.8226C60.4989 35.6803 59.6997 35.5521 58.8984 35.438C58.098 35.3244 57.1744 35.2067 56.8454 35.1773C56.5164 35.1479 55.8033 35.1262 55.2601 35.1288Z"
      fill="#E97183" style="fill:#E97183;fill:color(display-p3 0.9137 0.4431 0.5137);fill-opacity:1;" />
    <path
      d="M75.8228 -0.129129C76.1648 -0.135123 76.506 -0.0932428 76.8363 -0.00472454C77.1595 0.0805547 77.4747 0.193687 77.7781 0.333385C78.0432 0.462951 78.2615 0.611101 78.3498 0.721052C78.4289 0.819129 78.5162 0.998249 78.5453 1.11852C78.5791 1.26048 78.5858 2.13595 78.564 3.58389C78.5458 4.81864 78.5027 8.31485 78.4694 11.3527C78.4356 14.3905 78.4039 20.6742 78.3987 25.3158C78.3935 29.9575 78.4008 36.3687 78.4153 39.5629C78.4413 45.3598 78.4413 45.3702 78.3337 45.5766C78.2745 45.6902 78.1227 45.8528 77.9959 45.938C77.8467 46.0386 77.5546 46.1481 77.1679 46.2477C76.6367 46.3855 76.4865 46.4026 75.8165 46.4026C75.1606 46.402 74.9938 46.3835 74.5301 46.2611C74.2156 46.1763 73.906 46.0741 73.6029 45.955C73.3617 45.8549 73.1237 45.7088 72.9906 45.5803C72.8373 45.4321 72.7572 45.3015 72.7198 45.1379C72.684 44.983 72.6782 43.9325 72.7032 41.9891C72.724 40.3847 72.7567 36.0528 72.7765 32.362C72.7983 28.3666 72.7895 23.0095 72.7557 19.1215C72.724 15.5298 72.6741 11.1281 72.645 9.3395C72.6159 7.55087 72.5701 5.1108 72.5441 3.91735C72.5124 2.48748 72.514 1.66931 72.5483 1.51806C72.5764 1.39211 72.6585 1.21247 72.7302 1.11956C72.8014 1.02664 73.0369 0.831518 73.2541 0.68595C73.4869 0.531626 73.73 0.393305 73.9818 0.271958C74.1647 0.189366 74.5411 0.0659949 74.8186 -0.00162708C75.1469 -0.0845877 75.4841 -0.127406 75.8228 -0.129129Z"
      fill="#E97183" style="fill:#E97183;fill:color(display-p3 0.9137 0.4431 0.5137);fill-opacity:1;" />
    <path fill-rule="evenodd" clip-rule="evenodd"
      d="M83.7429 16.7015C84.0044 16.7022 84.2654 16.7264 84.5225 16.7738C84.7226 16.8156 85.0735 16.939 85.3022 17.0489C85.5308 17.1584 85.8515 17.3561 86.0142 17.4887C86.1779 17.6214 86.4181 17.8681 86.5496 18.0369C86.6795 18.2057 86.8666 18.5129 86.9649 18.7199C87.0626 18.9263 87.1816 19.2923 87.2299 19.5324C87.2913 19.839 87.3084 20.1012 87.2881 20.4099C87.2644 20.6996 87.2104 20.9861 87.127 21.2647C87.0414 21.5212 86.9306 21.7688 86.7965 22.0039C86.6873 22.1825 86.4493 22.4788 86.2668 22.6621C86.0849 22.8453 85.8011 23.0761 85.6379 23.1747C85.4364 23.2917 85.2262 23.3932 85.009 23.4782C84.8271 23.5458 84.4929 23.6294 84.2658 23.664C84.0162 23.6999 83.7636 23.7089 83.5121 23.6909C83.2925 23.6664 83.0745 23.6292 82.8593 23.5794C82.6878 23.537 82.3718 23.4178 82.1576 23.314C81.8562 23.1685 81.6618 23.0208 81.2979 22.6595C80.9362 22.3002 80.7844 22.1035 80.6378 21.8057C80.5248 21.5724 80.4301 21.3308 80.3546 21.083C80.2896 20.8456 80.2636 20.5735 80.2667 20.1539C80.2704 19.6619 80.2948 19.4895 80.4071 19.1473C80.4814 18.9202 80.6233 18.6011 80.7215 18.4391C80.8203 18.2765 80.9882 18.038 81.0942 17.9089C81.2007 17.7799 81.431 17.5672 81.6056 17.4356C81.821 17.2798 82.0491 17.1421 82.2876 17.0242C82.5131 16.9205 82.748 16.8384 82.9892 16.779C83.2378 16.7323 83.4899 16.7064 83.7429 16.7015ZM84.681 18.2956C84.6048 18.2984 84.5318 18.327 84.4742 18.3766C84.4295 18.4215 84.3931 18.5315 84.3941 18.6218C84.3952 18.7121 84.4279 19.0244 84.4674 19.3171C84.5069 19.6088 84.5683 19.8834 84.6041 19.9262C84.6431 19.9727 84.733 19.998 84.8245 19.9887C84.9103 19.9804 85.0043 19.9345 85.034 19.887C85.0724 19.8266 85.0683 19.6113 85.0215 19.1643C84.9846 18.8143 84.9207 18.4757 84.8801 18.4117C84.8585 18.3781 84.8292 18.3501 84.7946 18.3299C84.76 18.3097 84.7211 18.2979 84.681 18.2956ZM82.4955 18.5537C82.4331 18.5537 82.3395 18.5996 82.2891 18.6553C82.2039 18.7483 82.2013 18.7988 82.2579 19.2619C82.2928 19.5396 82.3338 19.8555 82.3499 19.9639C82.3692 20.0878 82.4227 20.1885 82.4955 20.2359C82.5301 20.2622 82.5714 20.2785 82.6147 20.2831C82.658 20.2878 82.7018 20.2806 82.7413 20.2623C82.8125 20.2354 82.8863 20.1745 82.905 20.126C82.9232 20.078 82.9009 19.7456 82.8546 19.3868C82.8011 18.9707 82.7413 18.7018 82.6898 18.644C82.6385 18.5911 82.5693 18.5589 82.4955 18.5537Z"
      fill="#E97183" style="fill:#E97183;fill:color(display-p3 0.9137 0.4431 0.5137);fill-opacity:1;" />
    <path
      d="M86.5496 25.0769C87.1827 25.0825 87.3006 25.0975 87.4592 25.1894C87.559 25.2477 87.691 25.3701 87.7523 25.4604C87.8142 25.5507 87.8885 25.7701 87.9186 25.9477C87.954 26.1604 87.9763 29.3897 87.9846 35.4075C87.9914 40.4327 87.9779 44.6139 87.9545 44.6991C87.9311 44.7843 87.8682 44.9159 87.8142 44.9923C87.7354 45.091 87.6405 45.1758 87.5335 45.2432C87.3807 45.3371 87.2029 45.3686 86.482 45.428C86.0044 45.4672 85.3988 45.5359 85.1358 45.5803C84.8734 45.6241 84.4757 45.7041 84.2522 45.7568C83.9118 45.8373 83.8053 45.843 83.5885 45.7935C83.4187 45.7573 83.2635 45.672 83.1426 45.5483C82.9991 45.4058 82.9399 45.2902 82.8905 45.0563C82.8551 44.8886 82.3863 40.6898 81.8499 35.7271C81.0334 28.1735 80.8832 26.6652 80.9279 26.4706C80.9632 26.3162 81.0464 26.1738 81.1742 26.0463C81.3536 25.8687 81.4258 25.8408 82.1654 25.6653C82.6113 25.5594 83.0593 25.4622 83.509 25.3737C83.9144 25.3019 84.3217 25.241 84.7304 25.1909C85.1021 25.1465 85.4997 25.1011 85.614 25.0903C85.7284 25.0794 86.1494 25.0732 86.5496 25.0769Z"
      fill="#E97183" style="fill:#E97183;fill:color(display-p3 0.9137 0.4431 0.5137);fill-opacity:1;" />
    <path fill-rule="evenodd" clip-rule="evenodd"
      d="M97.9999 1.89076C98.0664 1.88509 98.2301 1.90728 98.3637 1.9398C98.4983 1.97284 98.6703 2.04304 98.7473 2.09569C98.8237 2.14886 98.9349 2.26965 98.9941 2.36515C99.055 2.4622 99.1147 2.67126 99.1319 2.8416C99.148 3.00833 99.0435 7.17561 98.8996 12.1012C98.7556 17.0273 98.634 21.2663 98.6293 21.5218C98.6251 21.7773 98.6241 22.2703 98.6277 22.6182C98.634 23.2495 98.634 23.2495 99.1147 22.9961C99.421 22.8369 99.7336 22.6902 100.052 22.5563C100.303 22.4535 100.806 22.2889 101.169 22.1898C101.533 22.0906 102.088 21.9606 102.402 21.9012C102.83 21.8207 103.26 21.7871 104.117 21.768C104.97 21.7494 105.443 21.7639 105.976 21.8248C106.368 21.8702 107.023 21.9797 107.431 22.0674C107.838 22.1562 108.522 22.3426 108.951 22.4824C109.379 22.6223 110.012 22.8748 110.357 23.0435C110.702 23.2123 111.228 23.5128 111.527 23.711C111.825 23.9092 112.259 24.2225 112.491 24.4073C112.793 24.6558 113.085 24.9176 113.364 25.192C113.664 25.4959 113.95 25.813 114.222 26.1423C114.483 26.4694 114.73 26.8069 114.964 27.154C115.148 27.4348 115.375 27.8003 115.468 27.966C115.56 28.1317 115.725 28.4688 115.834 28.7145C115.943 28.9602 116.095 29.3474 116.172 29.5745C116.249 29.8016 116.391 30.3049 116.487 30.6931C116.583 31.0808 116.702 31.7079 116.751 32.0868C116.819 32.6216 116.832 33.0051 116.81 33.8073C116.795 34.3751 116.744 35.0834 116.698 35.3817C116.631 35.78 116.551 36.176 116.459 36.569C116.369 36.9408 116.272 37.3108 116.167 37.6788C116.092 37.9343 115.928 38.3989 115.802 38.7112C115.654 39.0709 115.49 39.424 115.31 39.7694C115.124 40.1102 114.923 40.4434 114.71 40.7683C114.47 41.1206 114.217 41.4643 113.952 41.7986C113.645 42.1692 113.32 42.5248 112.979 42.864C112.629 43.2029 112.264 43.525 111.883 43.8293C111.538 44.0949 111.184 44.3497 110.822 44.5933C110.536 44.7822 109.998 45.0852 109.627 45.2664C109.255 45.4476 108.706 45.6804 108.405 45.7831C108.105 45.8864 107.542 46.0485 107.153 46.1434C106.764 46.2384 106.191 46.3592 105.879 46.4113C105.42 46.4877 105.033 46.5053 103.832 46.5043C102.4 46.5027 102.328 46.4981 101.702 46.3577C101.281 46.2607 100.865 46.1472 100.453 46.0175C100.063 45.8852 99.6806 45.7295 99.3091 45.5514C98.9776 45.3845 98.654 45.2026 98.3393 45.0063C97.9141 44.7327 97.9141 44.7327 97.8787 44.9407C97.8543 45.0837 97.7821 45.2096 97.648 45.3433C97.5274 45.4703 97.3705 45.5575 97.1984 45.5932C97.0591 45.6241 96.5591 45.6634 96.0871 45.6799C95.6157 45.6969 94.5346 45.7449 93.6859 45.7867C92.5284 45.844 92.085 45.8487 91.9135 45.8064C91.7877 45.7749 91.6224 45.6918 91.5465 45.6216C91.4616 45.5413 91.385 45.4527 91.3178 45.3573C91.2378 45.2354 91.2258 45.0346 91.2118 43.5661C91.203 42.656 91.256 33.1801 91.3293 22.5093C91.4254 8.53785 91.48 3.04085 91.5226 2.87257C91.5606 2.72184 91.6515 2.56905 91.7768 2.44464C91.9239 2.29856 92.0393 2.23765 92.2498 2.19635C92.4021 2.1659 92.9358 2.11841 93.4364 2.0895C94.2071 2.04857 94.9781 2.01313 95.7493 1.98316L97.5165 1.91451C97.7166 1.90677 97.9344 1.89593 97.9999 1.89076ZM104.319 27.1793C103.922 27.1824 103.422 27.2144 103.208 27.2506C102.994 27.2867 102.631 27.3786 102.402 27.4545C102.174 27.5309 101.729 27.7151 101.415 27.8648C101.1 28.0145 100.649 28.2572 100.411 28.4038C100.173 28.5504 99.8341 28.7806 99.6579 28.9153C99.4812 29.05 99.188 29.3117 99.0061 29.4965C98.8242 29.6813 98.5877 29.9601 98.4796 30.1165C98.372 30.2729 98.1901 30.5862 98.0752 30.8134C97.9603 31.0405 97.7945 31.4287 97.7062 31.6765C97.6184 31.9242 97.5087 32.3305 97.4619 32.5798C97.4115 32.8472 97.3652 33.448 97.3491 34.0443C97.332 34.6673 97.345 35.2542 97.3824 35.5727C97.4156 35.8571 97.4894 36.2851 97.5466 36.5225C97.6038 36.7605 97.7363 37.1528 97.8403 37.3949C97.9442 37.636 98.1485 38.0412 98.293 38.2946C98.4738 38.6062 98.6931 38.8941 98.9458 39.1515C99.2117 39.4236 99.5149 39.657 99.8466 39.8448C100.127 40.0084 100.572 40.2412 100.834 40.3625C101.096 40.4838 101.533 40.6532 101.804 40.7394C102.076 40.825 102.485 40.9236 102.714 40.9577C102.943 40.9923 103.469 41.0197 103.884 41.0186C104.298 41.0181 104.871 40.9814 105.157 40.9386C105.443 40.8952 105.887 40.7858 106.144 40.696C106.402 40.6057 106.799 40.4384 107.028 40.3243C107.256 40.2108 107.612 40.0038 107.819 39.8649C108.026 39.7261 108.42 39.3998 108.694 39.1391C108.969 38.8785 109.342 38.4691 109.523 38.2291C109.705 37.9885 109.981 37.5461 110.138 37.2452C110.295 36.9443 110.505 36.4632 110.606 36.1767C110.706 35.8897 110.83 35.4019 110.881 35.0927C110.947 34.6993 110.975 34.258 110.975 33.6267C110.975 32.9675 110.95 32.5979 110.882 32.2587C110.807 31.9251 110.708 31.5973 110.585 31.2779C110.474 30.994 110.273 30.5759 110.139 30.3488C109.991 30.1 109.831 29.8588 109.659 29.6261C109.528 29.4558 109.265 29.1615 109.075 28.9726C108.862 28.7634 108.636 28.5675 108.399 28.3862C108.217 28.2525 107.838 28.029 107.558 27.8891C107.245 27.7359 106.924 27.6011 106.596 27.4854C106.348 27.4028 105.896 27.2996 105.592 27.2547C105.275 27.2082 104.732 27.1762 104.319 27.1793Z"
      fill="#E97183" style="fill:#E97183;fill:color(display-p3 0.9137 0.4431 0.5137);fill-opacity:1;" />
    <path
      d="M120.308 23.328L121.945 23.457C122.688 23.5154 123.436 23.5897 123.606 23.6227C123.858 23.6712 123.956 23.7223 124.127 23.8927C124.273 24.0372 124.356 24.1751 124.392 24.3356C124.436 24.5276 124.364 25.3731 123.982 29.1104C123.541 33.4258 123.517 33.717 123.511 34.943C123.506 35.8329 123.526 36.3537 123.575 36.6206C123.614 36.8333 123.713 37.1822 123.795 37.3949C123.877 37.6076 124.051 37.9627 124.181 38.1831C124.351 38.4556 124.546 38.7117 124.763 38.9481C125.043 39.2424 125.199 39.3549 125.582 39.5402C125.842 39.6662 126.194 39.7963 126.365 39.8303C126.536 39.8639 126.968 39.8912 127.325 39.8907C127.76 39.8907 128.086 39.8618 128.312 39.804C128.498 39.757 128.887 39.6027 129.175 39.4612C129.464 39.3203 129.84 39.1014 130.009 38.975C130.178 38.8485 130.515 38.5403 130.759 38.2895C131.02 38.0184 131.267 37.7347 131.5 37.4393C131.798 37.0449 131.798 37.0449 132.368 31.3223C132.681 28.1751 132.965 25.4614 132.999 25.2921C133.049 25.0438 133.101 24.9447 133.272 24.7749C133.419 24.6293 133.557 24.5483 133.72 24.5111C133.904 24.4698 134.334 24.4894 135.642 24.6004C136.569 24.6789 137.437 24.7697 137.571 24.8017C137.73 24.8394 137.879 24.923 137.999 25.0423C138.13 25.1723 138.201 25.304 138.244 25.4981C138.299 25.7427 138.211 26.7127 137.392 34.8222C136.89 39.8004 136.454 43.9563 136.424 44.058C136.393 44.1602 136.284 44.3264 136.182 44.4286C136.064 44.5472 135.916 44.6311 135.753 44.6712C135.558 44.7177 135.192 44.7032 133.9 44.5979C133.013 44.5257 132.15 44.4395 131.981 44.4064C131.736 44.3579 131.631 44.3047 131.472 44.1468C131.362 44.0368 131.258 43.8784 131.24 43.7942C131.224 43.7101 131.204 43.6409 131.198 43.6409C131.192 43.6409 130.943 43.7539 130.646 43.8923C130.349 44.0301 129.883 44.2154 129.612 44.3037C129.34 44.392 128.826 44.536 128.468 44.6237C127.99 44.7414 127.646 44.791 127.169 44.8116C126.716 44.8307 126.323 44.8137 125.872 44.7549C125.454 44.6971 125.037 44.6242 124.624 44.5365C124.215 44.4418 123.81 44.3309 123.409 44.2041C123.071 44.0946 122.578 43.8995 122.313 43.7705C122.048 43.6414 121.634 43.3993 121.394 43.2326C121.136 43.0521 120.887 42.8604 120.646 42.6581C120.431 42.4655 120.226 42.2613 120.034 42.0464C119.828 41.8052 119.635 41.5534 119.455 41.2922C119.288 41.0424 119.134 40.7839 118.994 40.5179C118.875 40.2737 118.768 40.0239 118.673 39.7694C118.596 39.5567 118.455 39.0684 118.361 38.6854C118.265 38.293 118.183 37.8969 118.118 37.4981C118.073 37.1833 118.05 36.5654 118.053 35.7689C118.058 34.5925 118.084 34.2698 118.585 29.368C118.874 26.5289 119.136 24.1183 119.167 24.0109C119.197 23.904 119.293 23.7353 119.38 23.6367C119.49 23.5194 119.627 23.4315 119.78 23.3811C119.927 23.3347 120.134 23.314 120.308 23.328ZM154.856 21.2972C155.576 21.2931 156.465 21.3143 156.831 21.3437C157.197 21.3742 157.751 21.4578 158.061 21.5306C158.557 21.6467 158.649 21.6854 158.816 21.8516C158.95 21.9843 159.025 22.119 159.068 22.3028C159.116 22.5119 159.115 22.6161 159.057 22.8174C159.019 22.9568 158.732 23.7905 158.418 24.6706C157.935 26.0329 157.824 26.2977 157.672 26.453C157.546 26.5821 157.415 26.6528 157.224 26.6967C157.016 26.7447 156.856 26.7447 156.524 26.6982C156.281 26.6636 155.479 26.6363 154.69 26.6363C153.565 26.6353 153.189 26.6528 152.793 26.7261C152.521 26.7762 152.084 26.8748 151.821 26.945C151.461 27.0482 151.105 27.1688 150.756 27.3063C150.433 27.4354 149.993 27.6351 149.778 27.7497C149.564 27.8643 149.236 28.0584 149.051 28.1813C148.864 28.3041 148.551 28.5633 148.352 28.7573C148.154 28.9514 147.894 29.2426 147.773 29.4052C147.653 29.5673 147.443 29.926 147.307 30.2022C147.16 30.5005 147.062 30.7674 147.066 30.8619C147.069 30.9486 147.448 33.8295 147.908 37.2628C148.67 42.9544 148.739 43.5294 148.683 43.7612C148.643 43.9308 148.555 44.0855 148.429 44.2067C148.279 44.3558 148.17 44.4105 147.929 44.4586C147.76 44.4921 147.282 44.567 146.868 44.6237C146.453 44.681 145.615 44.8096 145.007 44.9092C144.293 45.0253 143.831 45.078 143.707 45.0558C143.581 45.0296 143.46 44.9843 143.347 44.9216C143.243 44.8557 143.151 44.7726 143.075 44.6759C143.018 44.5959 142.943 44.4059 142.91 44.2536C142.876 44.1008 142.073 39.644 141.126 34.3493C139.586 25.7407 139.409 24.698 139.456 24.4915C139.492 24.3392 139.575 24.1957 139.703 24.0692C139.809 23.9634 139.985 23.8524 140.095 23.8215C140.204 23.7915 140.784 23.6836 141.384 23.583C141.984 23.4818 143.081 23.312 143.821 23.2046C144.925 23.0451 145.207 23.0198 145.396 23.0626C145.552 23.0983 145.694 23.1814 145.832 23.3182C145.944 23.4297 146.036 23.5474 146.036 23.5799C146.036 23.6119 146.061 23.727 146.092 23.8354C146.147 24.0326 146.147 24.0326 146.313 23.9066C146.404 23.8375 146.727 23.6284 147.03 23.442C147.334 23.2562 147.843 22.9739 148.161 22.8154C148.483 22.6549 148.811 22.5051 149.143 22.3663C149.363 22.2785 149.743 22.1381 149.986 22.055C150.229 21.9724 150.795 21.8134 151.243 21.703C151.691 21.5925 152.323 21.466 152.646 21.4222C152.97 21.3778 153.305 21.3334 153.391 21.3236C153.476 21.3132 154.136 21.3014 154.856 21.2972ZM160.069 40.1999C160.709 40.2144 160.884 40.2371 161.227 40.3496C161.45 40.4224 161.801 40.5819 162.007 40.7032C162.228 40.8328 162.564 41.1064 162.824 41.367C163.067 41.6102 163.344 41.9421 163.44 42.1042C163.536 42.2663 163.673 42.5429 163.745 42.7195C163.817 42.896 163.91 43.2274 163.952 43.4566C164.002 43.7348 164.018 44.0363 163.998 44.3636C163.983 44.633 163.933 45.0047 163.888 45.1885C163.822 45.4307 163.735 45.6669 163.628 45.8941C163.529 46.098 163.316 46.4294 163.155 46.6307C162.994 46.832 162.718 47.1139 162.543 47.2569C162.369 47.4004 162.016 47.6213 161.759 47.7483C161.501 47.8753 161.127 48.0131 160.927 48.0544C160.727 48.0957 160.292 48.1303 159.961 48.1308C159.53 48.1318 159.241 48.1024 158.947 48.0291C158.654 47.9477 158.369 47.8406 158.094 47.7091C157.732 47.5299 157.558 47.3978 157.128 46.9724C156.69 46.5394 156.568 46.3819 156.387 46.0154C156.256 45.7427 156.149 45.4593 156.067 45.1683C155.994 44.8803 155.964 44.5912 155.964 44.1876C155.964 43.8727 155.999 43.4525 156.041 43.2537C156.083 43.055 156.221 42.6834 156.348 42.4278C156.476 42.1723 156.71 41.8068 156.87 41.6159C157.029 41.4249 157.305 41.1528 157.484 41.0114C157.701 40.8449 157.933 40.6976 158.176 40.5711C158.419 40.4554 158.671 40.3599 158.93 40.2856C159.251 40.1999 159.442 40.1855 160.069 40.1999ZM174.435 15.2262C174.617 15.2402 174.81 15.2928 174.914 15.3568C175.01 15.4157 175.134 15.5272 175.189 15.6041C175.244 15.6815 175.318 15.8828 175.351 16.0522C175.385 16.2215 175.581 17.7701 175.787 19.4942C175.993 21.2178 176.174 22.6409 176.19 22.6564C176.205 22.6719 176.789 22.6156 177.487 22.531C178.184 22.4468 179.199 22.3307 179.742 22.2739C180.285 22.2166 181.256 22.1206 181.899 22.0602C182.543 21.9998 183.211 21.9611 183.384 21.9745C183.597 21.991 183.761 22.0385 183.888 22.1216C183.992 22.1887 184.123 22.326 184.178 22.4251C184.234 22.5248 184.294 22.6987 184.313 22.8123C184.332 22.9259 184.4 23.7941 184.465 24.7418C184.556 26.0499 184.571 26.5227 184.53 26.7018C184.493 26.8588 184.412 27.0012 184.288 27.1251C184.143 27.2691 184.031 27.3249 183.792 27.3729C183.623 27.4065 182.959 27.4813 182.315 27.5381C181.672 27.5959 180.596 27.7012 179.924 27.7724C179.252 27.8442 178.282 27.9531 177.767 28.0161C176.832 28.1296 176.832 28.1296 176.845 28.2587C176.851 28.3294 177.115 30.5475 177.43 33.1879C177.863 36.8219 178.029 38.0639 178.112 38.2982C178.172 38.4686 178.3 38.7391 178.398 38.8991C178.494 39.0591 178.722 39.3286 178.904 39.4974C179.12 39.6977 179.416 39.8969 179.758 40.0714C180.047 40.2185 180.559 40.4301 180.896 40.5411C181.233 40.6531 181.767 40.7827 182.081 40.8302C182.45 40.8854 183.05 40.9205 183.77 40.9283C184.507 40.936 184.941 40.9613 185.044 41.0031C185.13 41.0382 185.265 41.128 185.345 41.2039C185.425 41.2798 185.523 41.4564 185.564 41.6004C185.606 41.7485 185.695 42.6803 185.77 43.773C185.889 45.509 185.895 45.7098 185.825 45.9431C185.782 46.0846 185.683 46.2606 185.604 46.3339C185.528 46.4047 185.445 46.467 185.356 46.5197C185.299 46.5486 185.083 46.5977 184.877 46.6292C184.672 46.6607 184.111 46.686 183.63 46.686C183.15 46.686 182.488 46.6622 182.159 46.6343C181.742 46.5946 181.327 46.5414 180.914 46.4748C180.391 46.3802 179.871 46.2695 179.355 46.1429C178.853 46.0195 178.204 45.8363 177.913 45.7351C177.576 45.6161 177.243 45.4863 176.914 45.3459C176.626 45.2183 176.343 45.079 176.066 44.9283C175.858 44.8116 175.502 44.5845 175.273 44.4235C175.045 44.2629 174.599 43.8758 174.283 43.5635C173.966 43.2512 173.555 42.7928 173.37 42.545C173.184 42.2972 172.923 41.9111 172.788 41.6871C172.617 41.3876 172.466 41.0776 172.334 40.759C172.183 40.3636 172.054 39.9606 171.946 39.5516C171.838 39.136 171.636 37.9916 171.431 36.6464C171.246 35.4256 170.915 33.2421 170.696 31.7941C170.478 30.3462 170.294 29.1553 170.286 29.1481C170.279 29.1409 169.773 29.2271 169.161 29.3401C168.581 29.4467 168.002 29.5574 167.424 29.672C166.887 29.781 166.764 29.7908 166.542 29.7397C166.372 29.7038 166.217 29.6184 166.096 29.4945C165.928 29.3277 165.896 29.2493 165.796 28.7703C165.665 28.1093 165.541 27.4472 165.423 26.7839C165.17 25.3768 165.165 25.3282 165.242 25.0805C165.285 24.9401 165.349 24.7898 165.384 24.746C165.42 24.7026 165.523 24.6149 165.614 24.5514C165.739 24.4646 166.129 24.3676 167.199 24.158C167.981 24.0047 168.787 23.8509 168.993 23.8158C169.198 23.7807 169.389 23.7373 169.418 23.7198C169.452 23.6991 169.288 22.4778 168.961 20.3165C168.53 17.4567 168.459 16.9096 168.502 16.7103C168.539 16.542 168.615 16.4135 168.768 16.2612C168.925 16.1053 169.053 16.032 169.243 15.9887C169.386 15.9561 170.17 15.8235 170.984 15.6944C171.799 15.5654 172.84 15.4017 173.297 15.331C173.8 15.2536 174.249 15.2123 174.435 15.2262ZM189.384 20.8631C189.712 20.9297 190.449 21.0634 191.021 21.1599C191.593 21.257 192.14 21.3525 192.237 21.3726C192.337 21.3933 192.498 21.4913 192.604 21.5966C192.759 21.751 192.815 21.8671 192.913 22.2471C193.262 23.5467 193.646 24.837 194.063 26.1165C194.27 26.7406 194.574 27.6264 194.74 28.0847C195.167 29.2455 195.621 30.3963 196.102 31.536C196.259 31.9051 196.543 32.5555 196.735 32.9814C196.927 33.4073 197.425 34.4469 197.842 35.2914C198.26 36.1359 198.617 36.8271 198.635 36.8271C198.653 36.8271 198.942 36.2835 199.275 35.6192C199.609 34.9553 200.048 34.0551 200.251 33.6194C200.454 33.1832 200.825 32.3506 201.076 31.7683C201.327 31.1861 201.731 30.1991 201.975 29.5745C202.219 28.9499 202.582 27.9743 202.783 27.4065C203.031 26.696 203.268 25.9819 203.495 25.2642C203.685 24.6541 203.953 23.7482 204.09 23.2511C204.227 22.754 204.371 22.2238 204.409 22.0715C204.458 21.8775 204.537 21.7381 204.675 21.6008C204.783 21.4934 204.948 21.3902 205.041 21.3711C205.135 21.3514 205.678 21.257 206.25 21.1599C206.822 21.0634 207.559 20.9297 207.887 20.8631C208.382 20.7625 208.524 20.7511 208.712 20.7971C208.853 20.8316 209.011 20.9235 209.131 21.0407C209.264 21.1713 209.341 21.306 209.38 21.4789C209.429 21.6906 209.419 21.8191 209.316 22.3219C209.248 22.6487 209.121 23.2407 209.031 23.6382C208.737 24.9185 208.415 26.1921 208.063 27.4581C207.935 27.9123 207.666 28.8069 207.465 29.4454C207.208 30.2499 206.937 31.0501 206.654 31.8458C206.359 32.6593 206.051 33.4681 205.73 34.2719C205.466 34.9249 205.047 35.9237 204.798 36.4916C204.55 37.0594 203.905 38.4067 203.366 39.4855C202.826 40.5644 202.126 41.9075 201.809 42.4707C201.393 43.2039 200.967 43.9318 200.531 44.6542C200.225 45.1645 199.912 45.6707 199.592 46.1728C199.461 46.3695 199.292 46.5739 199.216 46.6266C199.104 46.694 198.983 46.7445 198.856 46.7763C198.712 46.8142 198.559 46.814 198.415 46.7758C198.294 46.7461 198.177 46.7008 198.068 46.641C198 46.5967 197.799 46.3396 197.624 46.0686C197.293 45.5475 196.969 45.0221 196.652 44.4926C196.293 43.8964 195.758 42.9786 195.462 42.4536C195.167 41.9287 194.56 40.7786 194.113 39.8985C193.666 39.0183 193.095 37.845 192.844 37.2917C192.528 36.5898 192.22 35.8843 191.921 35.1752C191.591 34.3802 191.274 33.58 190.97 32.7749C190.655 31.9274 190.355 31.0749 190.068 30.2177C189.803 29.4092 189.551 28.5968 189.311 27.7807C189.082 26.9754 188.864 26.1668 188.659 25.3551C188.457 24.5418 188.268 23.7256 188.09 22.9068C187.864 21.8429 187.842 21.6875 187.893 21.4717C187.93 21.3065 188.009 21.1692 188.14 21.0407C188.26 20.9235 188.418 20.8316 188.559 20.7971C188.747 20.7511 188.889 20.7625 189.384 20.8631Z"
      fill="#E97183" style="fill:#E97183;fill:color(display-p3 0.9137 0.4431 0.5137);fill-opacity:1;" />
  </g>
  <defs>
    <clipPath id="clip0_4_3">
      <rect width="213.844" height="48.4489" fill="white" style="fill:white;fill:white;fill-opacity:1;"
        transform="translate(0.755997)" />
    </clipPath>
  </defs>
</svg>
