<svg width="24" height="24" viewBox="0 0 24 24" xmlns="http://www.w3.org/2000/svg">
  <path fill-rule="evenodd" clip-rule="evenodd"
    d="M12 20C16.4183 20 20 16.4183 20 12C20 7.58172 16.4183 4 12 4C7.58172 4 4 7.58172 4 12C4 16.4183 7.58172 20 12 20ZM12.7232 10.336C11.9912 10.4216 11.3232 10.9824 11.1312 11.6544C10.9688 12.22 11.1384 12.792 11.5624 13.116C12.1464 13.5616 12.9744 13.2816 13.1448 12.568C13.1888 12.3824 13.2016 12.1704 13.1592 11.9864C13.0686 11.5881 12.9596 11.1944 12.8498 10.7974C12.8074 10.6442 12.7649 10.4906 12.7232 10.336ZM13.9614 10.6872C14.0384 10.9626 14.1128 11.2291 14.1848 11.4968C14.3352 12.0544 14.3424 12.608 14.1152 13.1488C13.4944 14.6304 11.516 14.8784 10.4968 13.6032C9.78081 12.708 9.79281 11.4216 10.5296 10.4456C10.9592 9.87761 11.5232 9.50641 12.208 9.31441L12.416 9.25681C12.4011 9.18251 12.385 9.10889 12.369 9.03565C12.3358 8.88413 12.3029 8.73421 12.2824 8.58321C12.1856 7.85841 12.5648 7.20481 13.2424 6.90881C13.9176 6.61441 14.7336 6.78961 15.1864 7.32721C15.4088 7.59121 15.404 7.92241 15.172 8.13361C14.9448 8.34161 14.624 8.32401 14.3816 8.08401C14.2464 7.94801 14.1016 7.84161 13.8992 7.84401C13.6112 7.84801 13.356 8.07441 13.3792 8.36001C13.3988 8.60215 13.4657 8.84218 13.5314 9.07809C13.5356 9.09315 13.5398 9.10819 13.544 9.12321C13.556 9.16641 13.6632 9.19761 13.7296 9.20801C14.4648 9.31601 15.1088 9.61041 15.6416 10.1304C17.0496 11.5032 17.2168 13.728 16.012 15.3296C15.1704 16.4488 14.0248 17.0752 12.6392 17.2072C10.0952 17.4504 7.86961 15.8144 7.29921 13.32C6.77921 11.0376 8.05841 8.60161 10.2352 7.73041C10.5584 7.60161 10.8648 7.71361 10.9904 8.00481C11.1184 8.30081 10.98 8.60321 10.6544 8.74881C9.35041 9.33201 8.55361 10.3208 8.33441 11.7352C8.04081 13.6264 9.24561 15.468 11.0872 15.988C12.5856 16.4112 14.2016 15.896 15.1096 14.704C15.9824 13.5592 15.88 11.896 14.8744 10.9192C14.5968 10.6488 14.2704 10.4648 13.8704 10.3608C13.9011 10.4713 13.9315 10.5799 13.9614 10.6872Z" />
</svg>
