<svg width="24" height="24" viewBox="0 0 24 24" xmlns="http://www.w3.org/2000/svg">
  <path
    d="M18.2477 6.32138C17.0651 5.77995 15.8166 5.39584 14.5342 5.17886C14.3587 5.49258 14.1999 5.81535 14.0585 6.14583C12.6925 5.93998 11.3033 5.93998 9.93722 6.14583C9.79573 5.81539 9.63694 5.49262 9.46152 5.17886C8.17826 5.39767 6.92896 5.78269 5.74515 6.32422C3.39498 9.80133 2.75789 13.1921 3.07644 16.5347C4.45275 17.5516 5.99324 18.3249 7.63094 18.8211C7.99971 18.3252 8.32601 17.799 8.6064 17.2482C8.07384 17.0493 7.55982 16.8039 7.0703 16.5149C7.19914 16.4214 7.32514 16.3252 7.4469 16.2317C8.87129 16.9016 10.4259 17.2489 12 17.2489C13.574 17.2489 15.1287 16.9016 16.5531 16.2317C16.6762 16.3322 16.8023 16.4285 16.9297 16.5149C16.4392 16.8044 15.9242 17.0503 15.3907 17.2497C15.6708 17.8002 15.9971 18.3259 16.3662 18.8211C18.0053 18.3269 19.547 17.5539 20.9235 16.5361C21.2973 12.6598 20.285 9.30015 18.2477 6.32138ZM9.0099 14.479C8.12221 14.479 7.38885 13.6734 7.38885 12.6824C7.38885 11.6914 8.09673 10.8787 9.00707 10.8787C9.9174 10.8787 10.6451 11.6914 10.6295 12.6824C10.614 13.6734 9.91457 14.479 9.0099 14.479ZM14.9901 14.479C14.101 14.479 13.3704 13.6734 13.3704 12.6824C13.3704 11.6914 14.0783 10.8787 14.9901 10.8787C15.9018 10.8787 16.6239 11.6914 16.6083 12.6824C16.5927 13.6734 15.8947 14.479 14.9901 14.479Z" />
</svg>
