<svg width="256" height="20" viewBox="0 0 256 20" fill="none" xmlns="http://www.w3.org/2000/svg">
  <path
    d="M6.20714 11.9806L3.36121 14.9763L3.36121 19.6839H0.0254517L0.0254517 1.27805L3.3592 1.27805L3.3592 10.7194L12.2286 1.27805L15.9729 1.27805L8.43692 9.50857L16.4362 19.6839H12.539L6.20714 11.9806Z"
    fill="#F06E8E" style="fill:#F06E8E;fill:color(display-p3 0.9412 0.4314 0.5569);fill-opacity:1;" />
  <path d="M18.1531 5.64206L21.3589 5.64206L21.3589 19.6839H18.1531L18.1531 5.64206Z" fill="#F06E8E"
    style="fill:#F06E8E;fill:color(display-p3 0.9412 0.4314 0.5569);fill-opacity:1;" />
  <path
    d="M37.6106 19.6839L33.9449 14.2937C33.7907 14.3109 33.5613 14.3192 33.2525 14.3192L29.2028 14.3192V19.6839H25.8687L25.8687 1.27803L33.2522 1.27803C34.6461 1.24551 36.0311 1.51388 37.3173 2.06573C38.4016 2.53223 39.3256 3.3197 39.9714 4.32752C40.6038 5.37632 40.9243 6.59151 40.8936 7.82427C40.9262 9.09126 40.5821 10.3384 39.9069 11.3999C39.2123 12.4295 38.2217 13.2111 37.0734 13.6359L41.2024 19.6832L37.6106 19.6839ZM36.4069 5.11694C35.6536 4.48568 34.5513 4.17005 33.1 4.17005L29.2028 4.17005V11.5071L33.1 11.5071C34.552 11.5071 35.6543 11.1876 36.4069 10.5485C36.7859 10.2139 37.0846 9.79438 37.2801 9.32231C37.4755 8.85024 37.5622 8.33835 37.5337 7.82634C37.5632 7.31608 37.4767 6.80577 37.2812 6.3356C37.0857 5.86544 36.7864 5.44826 36.4069 5.11694Z"
    fill="#F06E8E" style="fill:#F06E8E;fill:color(display-p3 0.9412 0.4314 0.5569);fill-opacity:1;" />
  <path
    d="M56.2504 15.4235L47.2768 15.4235L45.5077 19.6838H42.0735L50.1476 1.27798L53.4293 1.27798L61.5307 19.6838H58.0461L56.2504 15.4235ZM55.1464 12.7424L51.7636 4.69652L48.4067 12.7424H55.1464Z"
    fill="#F06E8E" style="fill:#F06E8E;fill:color(display-p3 0.9412 0.4314 0.5569);fill-opacity:1;" />
  <path
    d="M19.7465 0L20.4127 1.38485L21.9031 1.60676L20.8246 2.68493L21.0793 4.20692L19.7465 3.48814L18.4138 4.20692L18.6684 2.68493L17.59 1.60676L19.0803 1.38485L19.7465 0Z"
    fill="#F06E8E" style="fill:#F06E8E;fill:color(display-p3 0.9412 0.4314 0.5569);fill-opacity:1;" />
  <path
    d="M70.2994 11.9805L67.4538 14.9762V19.6838H64.1198V1.27798L67.4528 1.27798V10.7194L76.3222 1.27798L80.0652 1.27798L72.5299 9.50851L80.5291 19.6835H76.632L70.2994 11.9805Z"
    fill="#F06E8E" style="fill:#F06E8E;fill:color(display-p3 0.9412 0.4314 0.5569);fill-opacity:1;" />
  <path d="M82.246 5.64206L85.4507 5.64206V19.6839H82.246V5.64206Z" fill="#F06E8E"
    style="fill:#F06E8E;fill:color(display-p3 0.9412 0.4314 0.5569);fill-opacity:1;" />
  <path
    d="M101.704 19.6838L98.038 14.2936C97.8834 14.3109 97.654 14.3191 97.3452 14.3191L93.2955 14.3191V19.6838H89.9625V1.27799L97.3462 1.27799C98.7394 1.24573 100.124 1.5141 101.409 2.06569C102.494 2.53219 103.418 3.31966 104.063 4.32748C104.696 5.37638 105.016 6.59152 104.985 7.82423C105.018 9.09122 104.674 10.3384 103.999 11.3999C103.304 12.4295 102.314 13.2112 101.165 13.6358L105.294 19.6831L101.704 19.6838ZM100.5 5.1169C99.7467 4.48564 98.6444 4.17001 97.193 4.17001L93.2959 4.17001V11.5071L97.193 11.5071C98.6451 11.5071 99.7474 11.1875 100.5 10.5484C100.879 10.2137 101.177 9.79414 101.373 9.3221C101.568 8.85007 101.655 8.33826 101.626 7.8263C101.656 7.31608 101.569 6.80581 101.374 6.33566C101.178 5.86551 100.879 5.44831 100.5 5.1169Z"
    fill="#F06E8E" style="fill:#F06E8E;fill:color(display-p3 0.9412 0.4314 0.5569);fill-opacity:1;" />
  <path
    d="M120.343 15.4235L111.369 15.4235L109.6 19.6838H106.166L114.24 1.27798L117.522 1.27798L125.624 19.6838H122.137L120.343 15.4235ZM119.239 12.7424L115.855 4.69652L112.498 12.7424H119.239Z"
    fill="#F06E8E" style="fill:#F06E8E;fill:color(display-p3 0.9412 0.4314 0.5569);fill-opacity:1;" />
  <path d="M85.6113 2.50905L83.8562 0.708954L82.1011 2.50905L83.8562 4.30915L85.6113 2.50905Z" fill="#F06E8E"
    style="fill:#F06E8E;fill:color(display-p3 0.9412 0.4314 0.5569);fill-opacity:1;" />
  <path
    d="M156.873 1.26701L164.244 1.26701C166.003 1.22992 167.745 1.63535 169.317 2.44787C170.736 3.1903 171.92 4.33134 172.731 5.73788C173.556 7.19964 173.976 8.8646 173.947 10.5533C173.976 12.2422 173.556 13.9072 172.731 15.3691C171.92 16.7757 170.736 17.9167 169.317 18.6591C167.745 19.4717 166.003 19.877 164.244 19.8396H156.873V1.26701ZM164.143 18.1419C165.588 18.1758 167.019 17.843 168.309 17.1733C169.459 16.5658 170.419 15.6368 171.077 14.4935C171.746 13.2958 172.086 11.9338 172.06 10.5533C172.085 9.17294 171.745 7.81134 171.074 6.61414C170.417 5.47098 169.457 4.54197 168.306 3.93437C167.017 3.26481 165.586 2.9321 164.14 2.96577L158.787 2.96577V18.1419H164.143Z"
    fill="#F06E8E" style="fill:#F06E8E;fill:color(display-p3 0.9412 0.4314 0.5569);fill-opacity:1;" />
  <path
    d="M181.28 18.7652C179.86 17.9804 178.679 16.8101 177.865 15.3825C177.037 13.9164 176.612 12.2474 176.636 10.5533C176.612 8.85932 177.037 7.19044 177.865 5.72442C178.679 4.29657 179.86 3.12611 181.28 2.34138C182.779 1.53341 184.447 1.11014 186.141 1.1078C187.835 1.10546 189.505 1.52411 191.006 2.32794C192.42 3.11587 193.597 4.28586 194.408 5.71098C195.244 7.17928 195.673 8.85314 195.651 10.553C195.673 12.2529 195.244 13.9269 194.408 15.3953C193.597 16.8204 192.42 17.9903 191.006 18.7776C189.505 19.5817 187.835 20.0006 186.141 19.9983C184.447 19.996 182.779 19.5727 181.28 18.7645V18.7652ZM190.036 17.2529C191.173 16.6086 192.113 15.6533 192.752 14.4935C193.414 13.2925 193.754 11.9328 193.736 10.5533C193.753 9.17415 193.414 7.81489 192.752 6.61411C192.113 5.45435 191.173 4.49916 190.036 3.85475C188.84 3.20159 187.505 2.85998 186.15 2.85998C184.794 2.85998 183.459 3.20159 182.263 3.85475C181.118 4.49784 180.17 5.45277 179.521 6.61411C178.851 7.81228 178.507 9.17292 178.525 10.554C178.507 11.9352 178.851 13.296 179.521 14.4942C180.169 15.6556 181.118 16.6106 182.263 17.2536C183.459 17.9067 184.794 18.2483 186.15 18.2483C187.505 18.2483 188.84 17.9067 190.036 17.2536V17.2529Z"
    fill="#F06E8E" style="fill:#F06E8E;fill:color(display-p3 0.9412 0.4314 0.5569);fill-opacity:1;" />
  <path
    d="M201.754 17.9293C200.444 16.5496 199.788 14.542 199.788 11.9064V1.26697L201.703 1.26697V11.8268C201.703 13.9862 202.177 15.5958 203.126 16.6557C204.074 17.7156 205.446 18.2463 207.239 18.2476C209.05 18.2476 210.43 17.717 211.378 16.6557C212.327 15.5944 212.801 13.9848 212.801 11.8268V1.26697L214.664 1.26697V11.9064C214.664 14.5424 214.013 16.55 212.711 17.9293C211.409 19.3085 209.585 19.9983 207.239 19.9988C204.892 19.9988 203.064 19.3089 201.754 17.9293Z"
    fill="#F06E8E" style="fill:#F06E8E;fill:color(display-p3 0.9412 0.4314 0.5569);fill-opacity:1;" />
  <path
    d="M233.185 10.5533H235.022V17.6378C234.143 18.4178 233.124 19.0129 232.021 19.3889C230.847 19.7987 229.614 20.0048 228.374 19.9988C226.669 20.0255 224.986 19.6052 223.484 18.7776C222.065 17.9932 220.883 16.8228 220.07 15.3949C219.234 13.9265 218.805 12.2526 218.827 10.5526C218.805 8.85282 219.234 7.17896 220.07 5.71065C220.884 4.28293 222.065 3.11252 223.484 2.32761C224.995 1.49863 226.687 1.07867 228.4 1.10747C229.697 1.09259 230.986 1.32185 232.202 1.78387C233.316 2.20669 234.318 2.89291 235.125 3.78689L233.935 5.03425C232.504 3.58382 230.685 2.8586 228.477 2.8586C227.092 2.83797 225.725 3.18039 224.506 3.85339C223.349 4.49322 222.387 5.44867 221.727 6.61413C221.049 7.80975 220.701 9.17139 220.719 10.554C220.7 11.9331 221.048 13.2913 221.727 14.4822C222.39 15.6406 223.347 16.5938 224.495 17.2412C225.706 17.9237 227.07 18.2712 228.453 18.2494C230.139 18.3024 231.798 17.7991 233.185 16.8136V10.5533Z"
    fill="#F06E8E" style="fill:#F06E8E;fill:color(display-p3 0.9412 0.4314 0.5569);fill-opacity:1;" />
  <path
    d="M251.785 14.8781L241.696 14.8781L239.523 19.84H237.531L245.809 1.26733L247.696 1.26733L255.975 19.84H253.957L251.785 14.8781ZM251.086 13.2865L246.741 3.30998L242.394 13.2865L251.086 13.2865Z"
    fill="#F06E8E" style="fill:#F06E8E;fill:color(display-p3 0.9412 0.4314 0.5569);fill-opacity:1;" />
  <path fill-rule="evenodd" clip-rule="evenodd"
    d="M142.951 6.70845L140.16 0L137.37 6.70845L130.128 7.28907L135.646 12.0157L133.96 19.083L140.16 15.2958L146.361 19.083L144.675 12.0157L150.193 7.28907L142.951 6.70845ZM147.29 8.23221L142.143 7.81958L140.16 3.05208L138.177 7.81958L133.03 8.23221L136.952 11.5913L135.754 16.6138L140.16 13.9224L144.567 16.6138L143.369 11.5913L147.29 8.23221Z"
    fill="#F06E8E" style="fill:#F06E8E;fill:color(display-p3 0.9412 0.4314 0.5569);fill-opacity:1;" />
</svg>
