<svg width="24" height="24" viewBox="0 0 24 24" xmlns="http://www.w3.org/2000/svg">
  <path
    d="M4.31913 9.02267V17.1079C4.31913 17.4653 4.46111 17.8081 4.71382 18.0608C4.96653 18.3135 5.30928 18.4555 5.66667 18.4555H7.2592L8.1412 19.852C8.1701 19.8972 8.20997 19.9344 8.25709 19.9601C8.30421 19.9858 8.35706 19.9992 8.41073 19.999C8.46847 20.0035 8.52636 19.9923 8.57816 19.9664C8.62996 19.9405 8.67372 19.9009 8.70473 19.852L9.58673 18.4555H14.2419L15.1239 19.852C15.1549 19.9009 15.1987 19.9405 15.2505 19.9664C15.3023 19.9923 15.3602 20.0035 15.4179 19.999C15.5405 19.999 15.6385 19.95 15.6875 19.852L16.5695 18.4555H18.3336C18.691 18.4555 19.0337 18.3135 19.2864 18.0608C19.5392 17.8081 19.6811 17.4653 19.6811 17.1079V9.0226C19.6747 8.66948 19.5299 8.333 19.2779 8.08557C19.0259 7.83814 18.6868 7.69954 18.3336 7.6996H13.2129L16.1775 4.735L15.4425 4L12.0123 7.43013L8.53333 4L7.7982 4.735L10.7383 7.67513H5.69113C5.51005 7.67181 5.33015 7.70504 5.16219 7.77281C4.99423 7.84058 4.84166 7.94152 4.71359 8.06959C4.58552 8.19766 4.48459 8.35023 4.41681 8.51819C4.34904 8.68615 4.31582 8.86605 4.31913 9.04713V9.02267Z" />
</svg>
