<svg width="283" height="64" viewBox="0 0 283 64" fill="none" xmlns="http://www.w3.org/2000/svg">
  <mask id="mask0_4_27" style="mask-type:alpha" maskUnits="userSpaceOnUse" x="0" y="0" width="282" height="64">
    <g clip-path="url(#clip0_4_27)">
      <path
        d="M26.4841 25.3018L32 6.81557L37.5159 25.3018C37.5994 25.5815 37.7512 25.836 37.9575 26.0424C38.1639 26.2488 38.4185 26.4006 38.6982 26.4841L57.1844 32L38.6982 37.5159C38.4185 37.5994 38.1639 37.7511 37.9575 37.9575C37.7512 38.1639 37.5994 38.4184 37.5159 38.6981L32 57.1844L26.4841 38.6981C26.4006 38.4184 26.2488 38.1639 26.0425 37.9575C25.8361 37.7511 25.5815 37.5994 25.3018 37.5159L6.81558 32L25.3018 26.4841C25.5815 26.4006 25.8361 26.2488 26.0425 26.0424C26.2488 25.836 26.4006 25.5815 26.4841 25.3018Z"
        fill="black" style="fill:black;fill:black;fill-opacity:1;" />
      <path
        d="M17.6286 25.7059C19.2997 24.3923 21.2966 23.5563 23.3046 22.9163L23.3262 22.9094C23.2396 22.9335 23.1606 22.9793 23.0967 23.0426C23.034 23.1068 22.9885 23.1858 22.9642 23.2722L22.971 23.2507C23.6253 21.2161 24.423 19.3039 25.76 17.5744L25.8789 17.6099C25.6631 18.3985 25.2158 19.9739 24.9828 20.7568C24.7348 21.5862 24.3699 22.9024 24.1134 23.7154C24.061 23.8236 23.9832 23.9175 23.8868 23.9893C23.7904 24.0611 23.6781 24.1086 23.5594 24.1278L23.1668 24.2423L22.3815 24.4711C21.5995 24.6985 20.0225 25.1589 19.2403 25.3861L17.664 25.8247L17.6286 25.7059Z"
        fill="black" style="fill:black;fill:black;fill-opacity:1;" />
      <path
        d="M38.24 17.5744C39.5535 19.2456 40.3895 21.2424 41.0296 23.2505L41.0364 23.272C41.0124 23.1854 40.9665 23.1064 40.9033 23.0426C40.839 22.9799 40.76 22.9343 40.6736 22.91L40.6952 22.9169C42.7297 23.5712 44.6419 24.3689 46.3714 25.7058L46.3359 25.8248C45.5474 25.609 43.972 25.1616 43.1891 24.9287C42.3597 24.6806 41.0434 24.3158 40.2304 24.0593C40.1222 24.0068 40.0283 23.9291 39.9565 23.8327C39.8847 23.7363 39.8372 23.624 39.818 23.5053L39.7036 23.1127L39.4747 22.3274C39.2473 21.5453 38.7869 19.9684 38.5597 19.1862L38.1211 17.6099L38.24 17.5744Z"
        fill="black" style="fill:black;fill:black;fill-opacity:1;" />
      <path
        d="M46.3714 38.2941C44.7003 39.6077 42.7034 40.4437 40.6954 41.0837L40.6738 41.0906C40.7604 41.0665 40.8395 41.0207 40.9033 40.9574C40.966 40.8932 41.0115 40.8142 41.0359 40.7278L41.029 40.7493C40.3747 42.7839 39.577 44.6961 38.24 46.4256L38.1211 46.3901C38.3369 45.6015 38.7843 44.0261 39.0172 43.2432C39.2652 42.4139 39.6301 41.0976 39.8866 40.2846C39.939 40.1764 40.0168 40.0825 40.1132 40.0107C40.2096 39.9389 40.3219 39.8914 40.4406 39.8722L40.8332 39.7578L41.6185 39.5289C42.4006 39.3015 43.9775 38.8411 44.7597 38.6139L46.336 38.1753L46.3714 38.2941Z"
        fill="black" style="fill:black;fill:black;fill-opacity:1;" />
      <path
        d="M25.76 46.4256C24.4465 44.7544 23.6105 42.7576 22.9704 40.7495L22.9636 40.728C22.9876 40.8146 23.0335 40.8936 23.0967 40.9574C23.161 41.0201 23.24 41.0657 23.3264 41.09L23.3048 41.0831C21.2703 40.4288 19.3581 39.6311 17.6286 38.2942L17.6641 38.1752C18.4526 38.391 20.028 38.8384 20.8109 39.0713C21.6403 39.3194 22.9566 39.6842 23.7696 39.9407C23.8777 39.9932 23.9717 40.0709 24.0435 40.1673C24.1152 40.2638 24.1627 40.3761 24.182 40.4947L24.2964 40.8873L24.5253 41.6726C24.7527 42.4547 25.2131 44.0316 25.4403 44.8139L25.8789 46.3901L25.76 46.4256Z"
        fill="black" style="fill:black;fill:black;fill-opacity:1;" />
      <path d="M14.2629 27.7442L0 32L14.2629 36.2558C13.5956 33.4578 13.5956 30.5422 14.2629 27.7442Z" fill="black"
        style="fill:black;fill:black;fill-opacity:1;" />
      <path d="M27.7442 49.7371L32 64L36.2558 49.7371C33.4578 50.4044 30.5422 50.4044 27.7442 49.7371Z" fill="black"
        style="fill:black;fill:black;fill-opacity:1;" />
      <path d="M36.2558 14.2629L32 0L27.7442 14.2629C30.5422 13.5956 33.4578 13.5956 36.2558 14.2629Z" fill="black"
        style="fill:black;fill:black;fill-opacity:1;" />
      <path d="M49.7371 36.2558L64 32L49.7371 27.7442C50.4044 30.5422 50.4044 33.4578 49.7371 36.2558Z" fill="black"
        style="fill:black;fill:black;fill-opacity:1;" />
    </g>
    <path
      d="M74.256 40V23.2H76.824L87.36 36.136H86.088V23.2H89.184V40H86.616L76.08 27.064H77.352V40H74.256ZM101.558 40.24C100.246 40.24 99.0377 40.024 97.9337 39.592C96.8297 39.16 95.8697 38.56 95.0537 37.792C94.2377 37.008 93.6057 36.096 93.1577 35.056C92.7097 34 92.4857 32.848 92.4857 31.6C92.4857 30.352 92.7097 29.208 93.1577 28.168C93.6057 27.112 94.2377 26.2 95.0537 25.432C95.8697 24.648 96.8297 24.04 97.9337 23.608C99.0377 23.176 100.238 22.96 101.534 22.96C102.846 22.96 104.046 23.176 105.134 23.608C106.238 24.04 107.198 24.648 108.014 25.432C108.83 26.2 109.462 27.112 109.91 28.168C110.358 29.208 110.582 30.352 110.582 31.6C110.582 32.848 110.358 34 109.91 35.056C109.462 36.112 108.83 37.024 108.014 37.792C107.198 38.56 106.238 39.16 105.134 39.592C104.046 40.024 102.854 40.24 101.558 40.24ZM101.534 37.504C102.382 37.504 103.166 37.36 103.886 37.072C104.606 36.784 105.23 36.376 105.758 35.848C106.286 35.304 106.694 34.68 106.982 33.976C107.286 33.256 107.438 32.464 107.438 31.6C107.438 30.736 107.286 29.952 106.982 29.248C106.694 28.528 106.286 27.904 105.758 27.376C105.23 26.832 104.606 26.416 103.886 26.128C103.166 25.84 102.382 25.696 101.534 25.696C100.686 25.696 99.9017 25.84 99.1817 26.128C98.4777 26.416 97.8537 26.832 97.3097 27.376C96.7817 27.904 96.3657 28.528 96.0617 29.248C95.7737 29.952 95.6297 30.736 95.6297 31.6C95.6297 32.448 95.7737 33.232 96.0617 33.952C96.3657 34.672 96.7817 35.304 97.3097 35.848C97.8377 36.376 98.4617 36.784 99.1817 37.072C99.9017 37.36 100.686 37.504 101.534 37.504ZM118.341 40L110.997 23.2H114.381L120.933 38.392H118.989L125.613 23.2H128.733L121.413 40H118.341ZM127.591 40L135.151 23.2H138.223L145.807 40H142.543L136.039 24.856H137.287L130.807 40H127.591ZM131.071 36.112L131.911 33.664H140.983L141.823 36.112H131.071ZM162.448 40.24C161.136 40.24 159.928 40.024 158.824 39.592C157.72 39.16 156.76 38.56 155.944 37.792C155.128 37.008 154.496 36.096 154.048 35.056C153.6 34 153.376 32.848 153.376 31.6C153.376 30.352 153.6 29.208 154.048 28.168C154.496 27.112 155.128 26.2 155.944 25.432C156.76 24.648 157.72 24.04 158.824 23.608C159.928 23.176 161.128 22.96 162.424 22.96C163.736 22.96 164.936 23.176 166.024 23.608C167.128 24.04 168.088 24.648 168.904 25.432C169.72 26.2 170.352 27.112 170.8 28.168C171.248 29.208 171.472 30.352 171.472 31.6C171.472 32.848 171.248 34 170.8 35.056C170.352 36.112 169.72 37.024 168.904 37.792C168.088 38.56 167.128 39.16 166.024 39.592C164.936 40.024 163.744 40.24 162.448 40.24ZM162.424 37.504C163.272 37.504 164.056 37.36 164.776 37.072C165.496 36.784 166.12 36.376 166.648 35.848C167.176 35.304 167.584 34.68 167.872 33.976C168.176 33.256 168.328 32.464 168.328 31.6C168.328 30.736 168.176 29.952 167.872 29.248C167.584 28.528 167.176 27.904 166.648 27.376C166.12 26.832 165.496 26.416 164.776 26.128C164.056 25.84 163.272 25.696 162.424 25.696C161.576 25.696 160.792 25.84 160.072 26.128C159.368 26.416 158.744 26.832 158.2 27.376C157.672 27.904 157.256 28.528 156.952 29.248C156.664 29.952 156.52 30.736 156.52 31.6C156.52 32.448 156.664 33.232 156.952 33.952C157.256 34.672 157.672 35.304 158.2 35.848C158.728 36.376 159.352 36.784 160.072 37.072C160.792 37.36 161.576 37.504 162.424 37.504ZM177.953 40V25.84H172.385V23.2H186.641V25.84H181.073V40H177.953ZM196.62 40.24C195.308 40.24 194.1 40.024 192.996 39.592C191.892 39.16 190.932 38.56 190.116 37.792C189.3 37.008 188.668 36.096 188.22 35.056C187.772 34 187.548 32.848 187.548 31.6C187.548 30.352 187.772 29.208 188.22 28.168C188.668 27.112 189.3 26.2 190.116 25.432C190.932 24.648 191.892 24.04 192.996 23.608C194.1 23.176 195.3 22.96 196.596 22.96C197.908 22.96 199.108 23.176 200.196 23.608C201.3 24.04 202.26 24.648 203.076 25.432C203.892 26.2 204.524 27.112 204.972 28.168C205.42 29.208 205.644 30.352 205.644 31.6C205.644 32.848 205.42 34 204.972 35.056C204.524 36.112 203.892 37.024 203.076 37.792C202.26 38.56 201.3 39.16 200.196 39.592C199.108 40.024 197.916 40.24 196.62 40.24ZM196.596 37.504C197.444 37.504 198.228 37.36 198.948 37.072C199.668 36.784 200.292 36.376 200.82 35.848C201.348 35.304 201.756 34.68 202.044 33.976C202.348 33.256 202.5 32.464 202.5 31.6C202.5 30.736 202.348 29.952 202.044 29.248C201.756 28.528 201.348 27.904 200.82 27.376C200.292 26.832 199.668 26.416 198.948 26.128C198.228 25.84 197.444 25.696 196.596 25.696C195.748 25.696 194.964 25.84 194.244 26.128C193.54 26.416 192.916 26.832 192.372 27.376C191.844 27.904 191.428 28.528 191.124 29.248C190.836 29.952 190.692 30.736 190.692 31.6C190.692 32.448 190.836 33.232 191.124 33.952C191.428 34.672 191.844 35.304 192.372 35.848C192.9 36.376 193.524 36.784 194.244 37.072C194.964 37.36 195.748 37.504 196.596 37.504ZM208.951 40V23.2H211.519L218.863 35.464H217.519L224.743 23.2H227.311L227.335 40H224.383L224.359 27.832H224.983L218.839 38.08H217.447L211.207 27.832H211.927V40H208.951ZM229.497 40L237.057 23.2H240.129L247.713 40H244.449L237.945 24.856H239.193L232.713 40H229.497ZM232.977 36.112L233.817 33.664H242.889L243.729 36.112H232.977ZM249.85 40V23.2H257.194C259.018 23.2 260.618 23.552 261.994 24.256C263.37 24.96 264.442 25.936 265.21 27.184C265.978 28.432 266.362 29.904 266.362 31.6C266.362 33.28 265.978 34.752 265.21 36.016C264.442 37.264 263.37 38.24 261.994 38.944C260.618 39.648 259.018 40 257.194 40H249.85ZM252.97 37.36H257.05C258.314 37.36 259.402 37.12 260.314 36.64C261.242 36.16 261.954 35.488 262.45 34.624C262.962 33.76 263.218 32.752 263.218 31.6C263.218 30.432 262.962 29.424 262.45 28.576C261.954 27.712 261.242 27.04 260.314 26.56C259.402 26.08 258.314 25.84 257.05 25.84H252.97V37.36ZM274.886 40.24C273.574 40.24 272.318 40.056 271.118 39.688C269.918 39.304 268.966 38.816 268.262 38.224L269.342 35.8C270.014 36.328 270.846 36.768 271.838 37.12C272.83 37.472 273.846 37.648 274.886 37.648C275.766 37.648 276.478 37.552 277.022 37.36C277.566 37.168 277.966 36.912 278.222 36.592C278.478 36.256 278.606 35.88 278.606 35.464C278.606 34.952 278.422 34.544 278.054 34.24C277.686 33.92 277.206 33.672 276.614 33.496C276.038 33.304 275.39 33.128 274.67 32.968C273.966 32.808 273.254 32.624 272.534 32.416C271.83 32.192 271.182 31.912 270.59 31.576C270.014 31.224 269.542 30.76 269.174 30.184C268.806 29.608 268.622 28.872 268.622 27.976C268.622 27.064 268.862 26.232 269.342 25.48C269.838 24.712 270.582 24.104 271.574 23.656C272.582 23.192 273.854 22.96 275.39 22.96C276.398 22.96 277.398 23.088 278.39 23.344C279.382 23.6 280.246 23.968 280.982 24.448L279.998 26.872C279.246 26.424 278.47 26.096 277.67 25.888C276.87 25.664 276.102 25.552 275.366 25.552C274.502 25.552 273.798 25.656 273.254 25.864C272.726 26.072 272.334 26.344 272.078 26.68C271.838 27.016 271.718 27.4 271.718 27.832C271.718 28.344 271.894 28.76 272.246 29.08C272.614 29.384 273.086 29.624 273.662 29.8C274.254 29.976 274.91 30.152 275.63 30.328C276.35 30.488 277.062 30.672 277.766 30.88C278.486 31.088 279.134 31.36 279.71 31.696C280.302 32.032 280.774 32.488 281.126 33.064C281.494 33.64 281.678 34.368 281.678 35.248C281.678 36.144 281.43 36.976 280.934 37.744C280.454 38.496 279.71 39.104 278.702 39.568C277.694 40.016 276.422 40.24 274.886 40.24Z"
      fill="black" style="fill:black;fill:black;fill-opacity:1;" />
  </mask>
  <g mask="url(#mask0_4_27)">
    <rect width="283" height="64" fill="url(#paint0_linear_4_27)" style="" />
  </g>
  <defs>
    <linearGradient id="paint0_linear_4_27" x1="-22" y1="-5.50001" x2="289" y2="78" gradientUnits="userSpaceOnUse">
      <stop stop-color="#8CD4F0"
        style="stop-color:#8CD4F0;stop-color:color(display-p3 0.5490 0.8314 0.9412);stop-opacity:1;" />
      <stop offset="0.157085" stop-color="#88B8E4"
        style="stop-color:#88B8E4;stop-color:color(display-p3 0.5333 0.7216 0.8941);stop-opacity:1;" />
      <stop offset="0.421875" stop-color="#6987CF"
        style="stop-color:#6987CF;stop-color:color(display-p3 0.4118 0.5294 0.8118);stop-opacity:1;" />
      <stop offset="0.75" stop-color="#BD78E0"
        style="stop-color:#BD78E0;stop-color:color(display-p3 0.7410 0.4714 0.8788);stop-opacity:1;" />
      <stop offset="1" stop-color="#E182BE"
        style="stop-color:#E182BE;stop-color:color(display-p3 0.8824 0.5098 0.7451);stop-opacity:1;" />
    </linearGradient>
    <clipPath id="clip0_4_27">
      <rect width="64" height="64" fill="white" style="fill:white;fill:white;fill-opacity:1;" />
    </clipPath>
  </defs>
</svg>
