<svg width="219" height="64" viewBox="0 0 219 64" fill="none" xmlns="http://www.w3.org/2000/svg">
  <path
    d="M32.0128 1.024C32.4096 1.4784 32.7808 1.92 33.1456 2.3744C34.3424 3.8656 35.424 5.44 36.3904 7.0912C37.5808 9.12 38.5792 11.2576 39.3728 13.472C39.3856 13.504 39.3984 13.536 39.4112 13.568C39.4688 13.664 39.4304 13.7216 39.3344 13.7728C38.9888 13.9712 38.6496 14.1824 38.3104 14.3936C35.5392 16.1216 32.9856 18.176 30.7072 20.512C29.9776 21.2608 29.2736 22.0288 28.608 22.8416C28.48 23.008 28.3008 23.1296 28.1088 23.2C26.3936 23.8144 24.7232 24.544 23.104 25.3888C22.9056 25.4848 22.7072 25.6 22.5088 25.7024C22.4 25.76 22.368 25.7408 22.3744 25.632C22.4064 24.992 22.4192 24.3584 22.4704 23.7184C22.5088 23.2256 22.5536 22.7328 22.6048 22.2464C22.7008 21.344 22.8352 20.448 23.0016 19.5584C23.36 17.6128 23.8656 15.6928 24.5184 13.824C25.4528 11.1552 26.6752 8.6016 28.1664 6.2016C29.1648 4.5824 30.2912 3.04 31.52 1.5872C31.68 1.4016 31.8208 1.2096 32.0128 1.024Z"
    fill="#5FBAE7" style="fill:#5FBAE7;fill:color(display-p3 0.3725 0.7294 0.9059);fill-opacity:1;" />
  <path
    d="M4.4032 47.8784C4.544 47.5008 4.6784 47.1424 4.8128 46.7968C5.4528 45.1648 6.2016 43.584 7.0528 42.0544C8.032 40.3008 9.152 38.624 10.3936 37.0368C10.848 36.4608 11.3088 35.8912 11.8016 35.3472C11.9232 35.2128 11.9232 35.2128 12.0896 35.3024C13.9136 36.3072 15.8144 37.1712 17.7728 37.888C19.264 38.432 20.7872 38.8928 22.3296 39.2576C23.4112 39.5136 24.4928 39.7312 25.5936 39.8976C25.696 39.9104 25.7856 39.9552 25.8688 40.0256C26.528 40.5696 27.2064 41.0944 27.904 41.6C28.7168 42.1888 29.5488 42.7392 30.4 43.2704C30.6112 43.4048 30.8224 43.5456 31.072 43.7056C28.3776 45.1712 25.5232 46.3168 22.5664 47.1296C19.6224 47.9424 16.5952 48.4096 13.5424 48.5312C10.4768 48.6592 7.4112 48.4416 4.4032 47.8784Z"
    fill="#EA7A99" style="fill:#EA7A99;fill:color(display-p3 0.9176 0.4784 0.6000);fill-opacity:1;" />
  <path
    d="M42.56 27.3792C42.624 27.3664 42.6624 27.4176 42.7136 27.4432C44.3136 28.4032 45.8432 29.472 47.296 30.6496C48.1472 31.3408 48.9664 32.0704 49.76 32.8256C50.3296 33.3632 50.8736 33.9328 51.4112 34.5024C52.2048 35.3472 52.9536 36.224 53.6576 37.1392C54.6816 38.4576 55.6224 39.84 56.4736 41.28C57.6128 43.2128 58.5856 45.2416 59.3728 47.3408C59.424 47.4752 59.4752 47.6096 59.5264 47.7504C59.5648 47.8656 59.552 47.8912 59.4304 47.9168C59.168 47.968 58.9056 48.0128 58.6368 48.0512C58.1568 48.1216 57.6768 48.1984 57.1968 48.256C56.7488 48.3136 56.3008 48.3584 55.8528 48.3968C55.2704 48.448 54.6816 48.4864 54.0928 48.5248C53.8944 48.5376 53.696 48.5312 53.504 48.5376C53.1264 48.544 52.7488 48.5632 52.3712 48.5632C51.68 48.5696 50.9888 48.5568 50.304 48.5248C49.5488 48.4864 48.8 48.4288 48.0448 48.3584C46.9504 48.2496 45.8624 48.096 44.7808 47.8912C44.6528 47.8656 44.6272 47.8144 44.6336 47.7056C44.6528 47.2256 44.608 46.7456 44.5888 46.272C44.5504 45.4528 44.4864 44.64 44.3904 43.8208C44.3008 43.0656 44.1984 42.3104 44.0704 41.5616C43.9552 40.8704 43.8144 40.1728 43.6608 39.4944C43.4112 38.368 43.0976 37.2608 42.7456 36.16C42.5088 35.4112 42.2528 34.6752 41.952 33.9456C41.9136 33.8496 41.9008 33.7344 41.92 33.632C42.0672 32.8064 42.1888 31.9744 42.2848 31.136C42.3552 30.4768 42.4128 29.824 42.4576 29.1648C42.496 28.6016 42.5088 28.032 42.5344 27.4688C42.5344 27.4368 42.528 27.4048 42.56 27.3792Z"
    fill="#EA7A99" style="fill:#EA7A99;fill:color(display-p3 0.9176 0.4784 0.6000);fill-opacity:1;" />
  <path
    d="M61.536 26.6304C61.5296 26.6496 61.5232 26.6752 61.5104 26.6944C61.0816 27.136 60.672 27.5968 60.2176 28.0192C59.8784 28.3328 59.552 28.6656 59.2064 28.9792C58.0928 29.9968 56.9216 30.9504 55.6992 31.84C54.6624 32.5888 53.5936 33.2928 52.4928 33.9392C52.256 34.08 52.2496 34.0864 52.0704 33.8816C51.5008 33.2608 50.9056 32.6656 50.2976 32.0832C49.1776 31.0144 48 30.016 46.7648 29.0816C45.4464 28.0832 44.064 27.168 42.6304 26.336C41.2608 25.5424 39.8464 24.8256 38.3936 24.1984C37.1328 23.6544 35.8528 23.168 34.5472 22.7456C34.336 22.6752 34.1184 22.6112 33.9072 22.528C37.0048 21.8688 40.1728 21.5872 43.3344 21.6896C49.7024 21.8688 55.9424 23.5648 61.536 26.6304Z"
    fill="#EA7A99" style="fill:#EA7A99;fill:color(display-p3 0.9176 0.4784 0.6000);fill-opacity:1;" />
  <path
    d="M22.4 35.456C21.4848 34.4576 20.6272 33.4144 19.8272 32.3328C18.2016 30.1376 16.8128 27.776 15.6864 25.2864C14.5792 22.8544 13.7344 20.3136 13.1584 17.7024C12.9792 16.8896 12.8192 16.0704 12.6976 15.2448C12.576 14.4192 12.48 13.6064 12.4096 12.7808C12.3328 11.9296 12.3008 11.072 12.2624 10.2144C12.2496 9.9456 12.2624 9.9456 12.512 9.9968C14.4896 10.432 16.4288 11.0144 18.3232 11.7376C19.68 12.2624 21.0048 12.8512 22.2912 13.5168C22.624 13.6896 22.9568 13.8688 23.2896 14.0544C23.456 14.144 23.456 14.144 23.3984 14.3168C23.0784 15.2896 22.8032 16.2752 22.56 17.2672C22.304 18.3232 22.0928 19.392 21.9264 20.4672C21.8112 21.2288 21.7152 21.9904 21.6384 22.752C21.5872 23.2256 21.5616 23.7056 21.536 24.1856C21.4912 24.9024 21.4784 25.6192 21.4528 26.3424C21.4272 27.2192 21.4656 28.096 21.5232 28.9728C21.5616 29.568 21.6128 30.1632 21.6768 30.752C21.76 31.5008 21.8624 32.2496 21.9904 32.992C22.1248 33.7536 22.2656 34.5216 22.4448 35.2768C22.4512 35.3024 22.4512 35.3344 22.4576 35.36C22.464 35.4112 22.4832 35.4624 22.4 35.456Z"
    fill="#5FBAE7" style="fill:#5FBAE7;fill:color(display-p3 0.3725 0.7294 0.9059);fill-opacity:1;" />
  <path
    d="M39.6608 38.7264C39.6288 38.9952 39.5136 39.2384 39.424 39.4944C38.88 41.0112 38.2464 42.496 37.5168 43.9296C36.8704 45.2032 36.1536 46.4448 35.3728 47.6416C34.5408 48.9152 33.632 50.144 32.6592 51.3152C32.192 51.8784 31.7056 52.4288 31.2 52.9664C30.7904 53.4016 30.3808 53.8304 29.9584 54.2464C28.6976 55.4752 27.3664 56.6208 25.9584 57.6768C24.8192 58.528 23.6352 59.3216 22.4128 60.0512C22.1184 60.224 22.1568 60.224 22.0608 59.9232C21.5744 58.3872 21.184 56.8256 20.8896 55.2448C20.7488 54.496 20.6336 53.7408 20.544 52.9856C20.4608 52.288 20.3904 51.584 20.3456 50.8864C20.3008 50.1824 20.2624 49.5104 20.2624 48.8192C20.2624 48.6208 20.2624 48.6208 20.4672 48.5696C22.816 48.0704 25.12 47.3664 27.3408 46.464C28.8768 45.8304 30.3808 45.1136 31.84 44.32C33.6128 43.3728 35.2704 42.2528 36.864 41.0368C37.7664 40.352 38.6368 39.6224 39.4688 38.8544C39.5136 38.7968 39.584 38.752 39.6608 38.7264Z"
    fill="#EA7A99" style="fill:#EA7A99;fill:color(display-p3 0.9176 0.4784 0.6000);fill-opacity:1;" />
  <path
    d="M24.3584 38.7776C15.776 37.0688 8.4736 33.0304 2.464 26.6688C2.5152 26.6048 2.5792 26.5536 2.6496 26.5216C4.1536 25.7088 5.7024 24.9984 7.2896 24.3776C8.9536 23.7376 10.6624 23.2064 12.3968 22.7968C12.736 22.7136 13.0752 22.6368 13.4144 22.56C13.5744 22.5216 13.5936 22.5344 13.6512 22.6944C13.9648 23.5584 14.304 24.416 14.6816 25.2608C15.1808 26.3872 15.7312 27.4944 16.3328 28.576C16.8256 29.4656 17.3568 30.3296 17.9136 31.1808C18.464 32.0192 19.0528 32.832 19.6672 33.6192C20.3904 34.5536 21.1584 35.456 21.9648 36.32C22.4 36.7872 22.848 37.2416 23.2896 37.7088C23.6224 38.0544 23.9808 38.368 24.3328 38.7008C24.3584 38.72 24.3712 38.7456 24.3584 38.7776Z"
    fill="#EA7A99" style="fill:#EA7A99;fill:color(display-p3 0.9176 0.4784 0.6000);fill-opacity:1;" />
  <path
    d="M30.112 22.4896C35.7888 16.1152 43.3536 11.7248 51.7056 9.952C51.744 10.0096 51.7568 10.08 51.744 10.1504C51.7312 11.1104 51.6672 12.064 51.5776 13.024C51.488 13.9776 51.3664 14.912 51.2064 15.8528C51.0528 16.7616 50.8672 17.664 50.6432 18.56C50.4192 19.4752 50.1632 20.3776 49.8752 21.2608C49.8112 21.4592 49.856 21.4912 49.5552 21.44C48.736 21.2928 47.9104 21.1712 47.0784 21.0688C46.144 20.9536 45.1968 20.8768 44.2624 20.8256C43.328 20.7744 42.3616 20.7552 41.408 20.7744C40.4352 20.8 39.4624 20.8448 38.496 20.928C37.664 20.9984 36.8384 21.0944 36.0128 21.216C34.848 21.3888 33.696 21.6064 32.5504 21.8752C31.808 22.048 31.0784 22.2592 30.3424 22.4704C30.2656 22.5024 30.1888 22.5088 30.112 22.4896Z"
    fill="#5FBAE7" style="fill:#5FBAE7;fill:color(display-p3 0.3725 0.7294 0.9059);fill-opacity:1;" />
  <path
    d="M41.568 35.5264C41.664 35.7952 41.7536 36.0512 41.8368 36.32C42.304 37.7536 42.6816 39.2128 42.9824 40.6912C43.1488 41.5232 43.2896 42.3616 43.3984 43.2C43.4816 43.8272 43.5392 44.4544 43.5968 45.0816C43.7184 46.5216 43.7504 47.968 43.712 49.408C43.6864 50.2272 43.6416 51.0464 43.5584 51.8592C43.4816 52.5888 43.3984 53.312 43.2896 54.0352C43.1552 54.9248 42.9888 55.8144 42.7904 56.7104C42.5472 57.7984 42.2464 58.8736 41.9136 59.9424C41.9008 59.9872 41.888 60.0256 41.8752 60.064C41.8688 60.096 41.8368 60.1216 41.8048 60.1216C41.7856 60.1216 41.7728 60.1152 41.76 60.1024C41.6768 60.0576 41.5936 60.0128 41.5104 59.9616C40.192 59.168 38.9184 58.2976 37.696 57.3632C36.9344 56.7808 36.1984 56.1664 35.4816 55.5264C34.6048 54.7456 33.7792 53.92 32.9664 53.0816C32.8896 53.0048 32.8192 52.9216 32.7488 52.8384C32.6528 52.7168 32.6528 52.7168 32.7488 52.5888C33.3504 51.8976 33.9264 51.1872 34.4832 50.464C35.2064 49.5104 35.8912 48.5248 36.5312 47.5136C37.1776 46.4896 37.7728 45.4336 38.3232 44.3456C38.9568 43.0976 39.5264 41.8176 40.0192 40.5056C40.6208 38.9312 41.1136 37.3248 41.504 35.6864C41.504 35.6352 41.5296 35.5776 41.568 35.5264Z"
    fill="#EA7A99" style="fill:#EA7A99;fill:color(display-p3 0.9176 0.4784 0.6000);fill-opacity:1;" />
  <path
    d="M22.3808 27.3856C25.1264 29.0944 27.4048 31.4624 29.0112 34.272C30.528 36.9088 31.3792 39.872 31.5072 42.9056C27.744 40.5696 24.8896 37.0304 23.4048 32.8576C22.7904 31.104 22.2656 28.2624 22.3808 27.3856Z"
    fill="#5FBAE7" style="fill:#5FBAE7;fill:color(display-p3 0.3725 0.7294 0.9059);fill-opacity:1;" />
  <path
    d="M32.4864 42.8544C32.5888 39.9616 33.3632 37.1392 34.7648 34.6048C36.3712 31.648 38.7264 29.1648 41.5936 27.3984C41.4976 30.2208 40.7488 32.9792 39.4176 35.4624C37.8048 38.5024 35.4112 41.056 32.4864 42.8544Z"
    fill="#EA7A99" style="fill:#EA7A99;fill:color(display-p3 0.9176 0.4784 0.6000);fill-opacity:1;" />
  <path
    d="M41.1136 26.5408C35.3792 29.4656 28.576 29.4656 22.8416 26.5408C28.576 23.6096 35.3856 23.6096 41.1136 26.5408Z"
    fill="#EA7A99" style="fill:#EA7A99;fill:color(display-p3 0.9176 0.4784 0.6000);fill-opacity:1;" />
  <path
    d="M22.4 35.456C22.4384 35.4368 22.4384 35.3984 22.4448 35.3664C22.4576 35.392 22.4704 35.4112 22.4832 35.4368C22.4896 35.4624 22.496 35.5072 22.4704 35.5136C22.432 35.5264 22.4128 35.488 22.4 35.456Z"
    fill="#8CD4F0" style="fill:#8CD4F0;fill:color(display-p3 0.5490 0.8314 0.9412);fill-opacity:1;" />
  <path d="M39.6608 38.7268L39.674 38.7072V38.7202C39.674 38.7202 39.6674 38.7268 39.6608 38.7268Z" fill="#EA7A99"
    style="fill:#EA7A99;fill:color(display-p3 0.9176 0.4784 0.6000);fill-opacity:1;" />
  <path
    d="M81.72 40.36C76.536 40.36 73.056 36.832 73.056 31.6C73.056 26.368 76.536 22.84 81.72 22.84C86.88 22.84 90.36 26.368 90.36 31.6C90.36 36.832 86.88 40.36 81.72 40.36ZM81.72 37.768C85.176 37.768 87.528 35.272 87.528 31.6C87.528 27.928 85.176 25.432 81.72 25.432C78.24 25.432 75.888 27.928 75.888 31.6C75.888 35.272 78.24 37.768 81.72 37.768ZM100.142 37.432L100.886 39.592C99.9743 40 99.2063 40.168 98.2223 40.168C95.7743 40.168 94.3343 38.752 94.3343 35.92V30.424H92.1023V28.144H94.3343V25.048L96.9983 24.76V28.144H100.406V30.424H96.9983V35.92C96.9983 37.12 97.5503 37.792 98.6543 37.792C99.1343 37.792 99.6863 37.648 100.142 37.432ZM108.45 40.264C104.586 40.264 102.114 37.624 102.114 34.072C102.114 30.52 104.586 27.88 108.45 27.88C112.29 27.88 114.762 30.52 114.762 34.072C114.762 37.624 112.29 40.264 108.45 40.264ZM108.45 37.816C110.658 37.816 112.074 36.136 112.074 34.072C112.074 32.008 110.658 30.328 108.45 30.328C106.218 30.328 104.802 32.008 104.802 34.072C104.802 36.136 106.218 37.816 108.45 37.816ZM131.241 27.904C134.289 27.904 136.185 29.848 136.185 33.064V40H133.497V33.28C133.497 31.384 132.633 30.328 131.025 30.328C129.249 30.328 128.073 31.576 128.073 33.424V40H125.385V33.28C125.385 31.384 124.497 30.328 122.889 30.328C121.137 30.328 119.937 31.576 119.937 33.424V40H117.249V28.144H119.649L119.673 29.536C120.537 28.432 121.689 27.904 123.177 27.904C124.857 27.904 126.273 28.696 127.017 29.992C127.953 28.6 129.393 27.904 131.241 27.904ZM148.736 28.144H151.136V40H148.736L148.712 38.416C147.8 39.568 146.216 40.264 144.392 40.264C140.912 40.264 138.512 37.72 138.512 34.072C138.512 30.424 140.912 27.88 144.392 27.88C146.24 27.88 147.8 28.576 148.712 29.728L148.736 28.144ZM144.824 37.816C146.96 37.816 148.448 36.28 148.448 34.072C148.448 31.864 146.96 30.328 144.824 30.328C142.688 30.328 141.2 31.864 141.2 34.072C141.2 36.28 142.688 37.816 144.824 37.816ZM163.566 23.2H166.254V40H163.854L163.83 38.416C162.918 39.568 161.334 40.264 159.462 40.264C156.102 40.264 153.63 37.816 153.63 34.072C153.63 30.328 156.102 27.88 159.462 27.88C161.166 27.88 162.63 28.456 163.566 29.416V23.2ZM159.942 37.816C162.078 37.816 163.566 36.28 163.566 34.072C163.566 31.864 162.078 30.328 159.942 30.328C157.806 30.328 156.318 31.864 156.318 34.072C156.318 36.28 157.806 37.816 159.942 37.816Z"
    fill="#EA7A99" style="fill:#EA7A99;fill:color(display-p3 0.9176 0.4784 0.6000);fill-opacity:1;" />
  <path
    d="M190.755 23.2H193.755L188.091 40H184.995L183.147 34.264L180.987 27.688L178.827 34.264L176.955 40H173.931L168.195 23.2H171.195L173.763 31.312L175.443 36.544L179.691 23.2H182.235L186.531 36.472L188.211 31.312L190.755 23.2ZM196.757 26.368C195.773 26.368 195.053 25.672 195.053 24.736C195.053 23.752 195.773 23.056 196.757 23.056C197.789 23.056 198.509 23.752 198.509 24.736C198.509 25.672 197.789 26.368 196.757 26.368ZM195.413 40V28.144H198.101V40H195.413ZM212.334 40H208.83L204.078 34.768V40H201.39V23.2H204.078V33.136L208.326 28.144H211.614L206.646 33.832L212.334 40ZM215.203 26.368C214.219 26.368 213.499 25.672 213.499 24.736C213.499 23.752 214.219 23.056 215.203 23.056C216.235 23.056 216.955 23.752 216.955 24.736C216.955 25.672 216.235 26.368 215.203 26.368ZM213.859 40V28.144H216.547V40H213.859Z"
    fill="#5FBAE7" style="fill:#5FBAE7;fill:color(display-p3 0.3725 0.7294 0.9059);fill-opacity:1;" />
</svg>
