<svg width="24" height="24" viewBox="0 0 24 24" xmlns="http://www.w3.org/2000/svg">
  <path
    d="M17.2111 10.4898C17.2118 10.468 17.221 10.1 17.221 9.91008C17.221 6.71293 15.7117 3.50016 11.9999 3.5C8.28825 3.50016 6.77896 6.71293 6.77896 9.91008C6.77896 10.1 6.78821 10.468 6.78885 10.4898L6.03976 12.3594V12.3594C5.83456 12.8945 5.63193 13.4516 5.48349 13.9293C4.77556 16.2074 5.005 17.1502 5.17959 17.1714C5.55428 17.2167 6.63818 15.4565 6.63818 15.4565C6.63818 16.4757 7.16252 17.8059 8.29787 18.7664C7.87323 18.8974 7.35298 19.0988 7.01878 19.3457C6.71807 19.5677 6.75554 19.7939 6.80975 19.8853C7.04764 20.2868 10.8908 20.1417 12.0004 20.0167C13.11 20.1417 16.9532 20.2868 17.1911 19.8853C17.2453 19.7939 17.2827 19.5677 16.9822 19.3457C16.6477 19.0986 16.127 18.8972 15.7024 18.7662C16.8376 17.8057 17.3618 16.4756 17.3618 15.4565C17.3618 15.4565 18.4457 17.2167 18.8204 17.1714C18.995 17.1502 19.2244 16.2074 18.5165 13.9293C18.3681 13.4516 18.1654 12.8945 17.9602 12.3594L17.2111 10.4898Z" />
</svg>
