<svg width="24" height="24" viewBox="0 0 24 24" xmlns="http://www.w3.org/2000/svg">
  <path
    d="M19.1093 8.81943C19.1202 8.97693 19.1202 9.13443 19.1202 9.29338C19.1202 14.1367 15.4331 19.7225 8.69105 19.7225V19.7196C6.69944 19.7225 4.7492 19.152 3.07259 18.0764C3.36218 18.1112 3.65323 18.1286 3.94501 18.1293C5.59549 18.1308 7.1988 17.577 8.49726 16.5572C6.9288 16.5275 5.55339 15.5048 5.07291 14.0118C5.62234 14.1178 6.18847 14.096 6.72775 13.9487C5.01775 13.6032 3.78751 12.1008 3.78751 10.356C3.78751 10.34 3.78751 10.3247 3.78751 10.3095C4.29702 10.5933 4.86751 10.7508 5.45105 10.7682C3.84049 9.69184 3.34404 7.54926 4.31662 5.8741C6.17759 8.16402 8.92331 9.55612 11.8708 9.70346C11.5754 8.43039 11.979 7.09636 12.9312 6.20144C14.4075 4.8137 16.7294 4.88483 18.1171 6.36039C18.938 6.19854 19.7248 5.89733 20.4448 5.47055C20.1711 6.31902 19.5985 7.03975 18.8335 7.49773C19.56 7.41209 20.2698 7.21757 20.9383 6.92072C20.4462 7.65813 19.8264 8.30047 19.1093 8.81943Z" />
</svg>
