<svg width="24" height="24" viewBox="0 0 24 24" xmlns="http://www.w3.org/2000/svg">
  <path fill-rule="evenodd" clip-rule="evenodd"
    d="M18.6416 6.36875C19.3728 6.5658 19.9494 7.14535 20.1445 7.88137C20.5 9.21625 20.5 12 20.5 12C20.5 12 20.5 14.7847 20.1445 16.1186C19.9494 16.8547 19.3728 17.4342 18.6416 17.6313C17.3164 17.9886 12 17.9886 12 17.9886C12 17.9886 6.6846 17.9886 5.35841 17.6313C4.62722 17.4342 4.05057 16.8547 3.85545 16.1186C3.5 14.7838 3.5 12 3.5 12C3.5 12 3.5 9.21625 3.85545 7.88137C4.05057 7.14535 4.62722 6.5658 5.35841 6.36875C6.68364 6.01137 12 6.01137 12 6.01137C12 6.01137 17.3164 6.01137 18.6416 6.36875ZM14.7045 12L10.2614 14.5278V9.47221L14.7045 12Z" />
</svg>
